<svg width="80" height="80" viewBox="0 0 80 80" fill="none" xmlns="http://www.w3.org/2000/svg">
<g id="Frame" clip-path="url(#clip0_60_930)">
<g id="Group">
<path id="Vector" d="M80 40C80 51.7066 74.9702 62.2388 66.955 69.5544C59.8438 76.0425 50.3844 80 40 80C29.6156 80 20.1562 76.0425 13.045 69.5544C5.02984 62.2388 0 51.7066 0 40C0 17.9095 17.9095 0 40 0C62.0905 0 80 17.9095 80 40Z" fill="#FFAA20"/>
<path id="Vector_2" d="M80 40C80 51.7066 74.9702 62.2388 66.955 69.5544C59.8437 76.0425 50.3844 80 40 80V0C62.0905 0 80 17.9095 80 40Z" fill="#FF8900"/>
<path id="Vector_3" d="M66.9549 69.3952V69.5545C59.8437 76.0423 50.3843 80 39.9999 80C29.6155 80 20.1562 76.0425 13.0449 69.5544V69.395C13.0449 57.8075 20.3954 47.9028 30.6799 44.1034C33.5846 43.028 36.7248 42.4409 39.9999 42.4409C43.2751 42.4409 46.4154 43.028 49.3218 44.1034C59.6062 47.9047 66.9549 57.8077 66.9549 69.3952Z" fill="#7985EB"/>
<path id="Vector_4" d="M66.955 69.3952V69.5545C59.8437 76.0423 50.3844 80 40 80V42.4408C43.275 42.4408 46.4155 43.028 49.3219 44.1033C59.6063 47.9047 66.955 57.8077 66.955 69.3952Z" fill="#4B5BE6"/>
<path id="Vector_5" d="M56.5321 30.4566C56.5321 39.5722 49.117 46.9897 39.9995 46.9897C30.8838 46.9897 23.4668 39.5722 23.4668 30.4566C23.4668 21.3409 30.884 13.9239 39.9995 13.9239C49.117 13.9239 56.5321 21.3409 56.5321 30.4566Z" fill="#FFDBA9"/>
<path id="Vector_6" d="M56.5327 30.4566C56.5327 39.5722 49.1175 46.9897 40 46.9897V13.9241C49.1175 13.9241 56.5327 21.3409 56.5327 30.4566Z" fill="#FFC473"/>
</g>
</g>
<defs>
<clipPath id="clip0_60_930">
<rect width="80" height="80" fill="white"/>
</clipPath>
</defs>
</svg>
