<svg width="335" height="205" viewBox="0 0 335 205" fill="none" xmlns="http://www.w3.org/2000/svg">
<g opacity="0.7">
<path d="M314.643 196.429H185.571C183.286 196.429 181.357 194.571 181.357 192.214V4.21429C181.357 1.92857 183.214 0 185.571 0H314.643C316.928 0 318.857 1.85714 318.857 4.21429V192.286C318.857 194.571 317 196.429 314.643 196.429ZM185.571 0.214288C183.357 0.214288 181.571 2 181.571 4.21429V192.286C181.571 194.5 183.357 196.286 185.571 196.286H314.643C316.857 196.286 318.643 194.5 318.643 192.286V4.21429C318.643 2 316.857 0.214288 314.643 0.214288H185.571Z" fill="#E0E0E0"/>
<path d="M165.786 196.429H36.7145C34.4288 196.429 32.5002 194.571 32.5002 192.214V4.21429C32.5002 1.92857 34.3574 0 36.7145 0H165.786C168.072 0 170 1.85714 170 4.21429V192.286C170 194.571 168.072 196.429 165.786 196.429ZM36.7145 0.214288C34.5002 0.214288 32.7145 2 32.7145 4.21429V192.286C32.7145 194.5 34.5002 196.286 36.7145 196.286H165.786C168 196.286 169.786 194.5 169.786 192.286V4.21429C169.786 2 168 0.214288 165.786 0.214288H36.7145Z" fill="#E0E0E0"/>
<path d="M10.1427 45C17.2141 38.1428 28.4999 38.3571 35.357 45.5C41.9999 52.4285 41.9999 63.2857 35.357 70.2142L25.2856 80.2857C23.857 81.7143 21.6427 81.7143 20.2142 80.2857L10.1427 70.2142C3.21415 63.2142 3.21415 51.9285 10.1427 45ZM22.7856 65.8571C27.4999 65.8571 31.2856 61.9285 31.0713 57.2143C30.857 53 27.4284 49.5 23.2142 49.3571C18.4999 49.1428 14.5713 52.9285 14.5713 57.6428C14.4999 62.1428 18.2142 65.8571 22.7856 65.8571Z" fill="#E6E6E6"/>
<path d="M306.714 131.429V97.5H285.714V105.286H271.714V20.5H244.786V53.8572H236.714V37.2143H215.643V118.429H186.071V89.7858H167.5V27.5H144.571V69H123V158.357H106.286V114.857H89.0714V86.8572H70.7857V65.3572L50.3572 76.1429V133.643H28.7857V121.786H0V205.143L335 205.357V131.429H306.714Z" fill="#EBEBEB"/>
<path d="M90.5 205.214V81.1429H67.6428V205.286C74.8571 205.143 90.5 205.214 90.5 205.214Z" fill="#E6E6E6"/>
<path d="M69.6429 205.357V137.143H22.5V205.214L69.6429 205.357Z" fill="#FAFAFA"/>
<path d="M126.857 205.214V105.071H100.143V205.214H126.857Z" fill="#E0E0E0"/>
<path d="M105.429 109H102.215V115.643H105.429V109Z" fill="#FAFAFA"/>
<path d="M111.929 109H108.714V115.643H111.929V109Z" fill="#FAFAFA"/>
<path d="M118.357 109H115.143V115.643H118.357V109Z" fill="#FAFAFA"/>
<path d="M124.857 109H121.643V115.643H124.857V109Z" fill="#FAFAFA"/>
<path d="M105.429 120.214H102.215V126.857H105.429V120.214Z" fill="#FAFAFA"/>
<path d="M111.929 120.214H108.714V126.857H111.929V120.214Z" fill="#FAFAFA"/>
<path d="M118.357 120.214H115.143V126.857H118.357V120.214Z" fill="#FAFAFA"/>
<path d="M124.857 120.214H121.643V126.857H124.857V120.214Z" fill="#FAFAFA"/>
<path d="M105.429 131.357H102.215V138H105.429V131.357Z" fill="#FAFAFA"/>
<path d="M111.929 131.357H108.714V138H111.929V131.357Z" fill="#FAFAFA"/>
<path d="M118.357 131.357H115.143V138H118.357V131.357Z" fill="#FAFAFA"/>
<path d="M124.857 131.357H121.643V138H124.857V131.357Z" fill="#FAFAFA"/>
<path d="M105.429 142.571H102.215V149.214H105.429V142.571Z" fill="#FAFAFA"/>
<path d="M111.929 142.571H108.714V149.214H111.929V142.571Z" fill="#FAFAFA"/>
<path d="M118.357 142.571H115.143V149.214H118.357V142.571Z" fill="#FAFAFA"/>
<path d="M124.857 142.571H121.643V149.214H124.857V142.571Z" fill="#FAFAFA"/>
<path d="M105.429 153.714H102.215V160.357H105.429V153.714Z" fill="#FAFAFA"/>
<path d="M111.929 153.714H108.714V160.357H111.929V153.714Z" fill="#FAFAFA"/>
<path d="M118.357 153.714H115.143V160.357H118.357V153.714Z" fill="#FAFAFA"/>
<path d="M124.857 153.714H121.643V160.357H124.857V153.714Z" fill="#FAFAFA"/>
<path d="M105.429 164.929H102.215V171.571H105.429V164.929Z" fill="#FAFAFA"/>
<path d="M111.929 164.929H108.714V171.571H111.929V164.929Z" fill="#FAFAFA"/>
<path d="M118.357 164.929H115.143V171.571H118.357V164.929Z" fill="#FAFAFA"/>
<path d="M124.857 164.929H121.643V171.571H124.857V164.929Z" fill="#FAFAFA"/>
<path d="M105.429 176.143H102.215V182.786H105.429V176.143Z" fill="#FAFAFA"/>
<path d="M111.929 176.143H108.714V182.786H111.929V176.143Z" fill="#FAFAFA"/>
<path d="M118.357 176.143H115.143V182.786H118.357V176.143Z" fill="#FAFAFA"/>
<path d="M124.857 176.143H121.643V182.786H124.857V176.143Z" fill="#FAFAFA"/>
<path d="M105.429 187.286H102.215V193.929H105.429V187.286Z" fill="#FAFAFA"/>
<path d="M111.929 187.286H108.714V193.929H111.929V187.286Z" fill="#FAFAFA"/>
<path d="M118.357 187.286H115.143V193.929H118.357V187.286Z" fill="#FAFAFA"/>
<path d="M124.857 187.286H121.643V193.929H124.857V187.286Z" fill="#FAFAFA"/>
<path d="M219.643 205.286V90.7858H164.286V205.286C164.286 205.286 219.214 205.357 219.643 205.286Z" fill="#F5F5F5"/>
<path d="M175.143 95.3572H168.428V103.071H175.143V95.3572Z" fill="#E6E6E6"/>
<path d="M188.572 95.3572H181.857V103.071H188.572V95.3572Z" fill="#E6E6E6"/>
<path d="M202 95.3572H195.286V103.071H202V95.3572Z" fill="#E6E6E6"/>
<path d="M215.429 95.3572H208.714V103.071H215.429V95.3572Z" fill="#E6E6E6"/>
<path d="M175.143 108.286H168.428V116H175.143V108.286Z" fill="#E6E6E6"/>
<path d="M188.572 108.286H181.857V116H188.572V108.286Z" fill="#E6E6E6"/>
<path d="M202 108.286H195.286V116H202V108.286Z" fill="#E6E6E6"/>
<path d="M215.429 108.286H208.714V116H215.429V108.286Z" fill="#E6E6E6"/>
<path d="M175.143 121.143H168.428V128.857H175.143V121.143Z" fill="#E6E6E6"/>
<path d="M188.572 121.143H181.857V128.857H188.572V121.143Z" fill="#E6E6E6"/>
<path d="M202 121.143H195.286V128.857H202V121.143Z" fill="#E6E6E6"/>
<path d="M215.429 121.143H208.714V128.857H215.429V121.143Z" fill="#E6E6E6"/>
<path d="M175.143 134.071H168.428V141.786H175.143V134.071Z" fill="#E6E6E6"/>
<path d="M188.572 134.071H181.857V141.786H188.572V134.071Z" fill="#E6E6E6"/>
<path d="M202 134.071H195.286V141.786H202V134.071Z" fill="#E6E6E6"/>
<path d="M215.429 134.071H208.714V141.786H215.429V134.071Z" fill="#E6E6E6"/>
<path d="M175.143 146.929H168.428V154.643H175.143V146.929Z" fill="#E6E6E6"/>
<path d="M188.572 146.929H181.857V154.643H188.572V146.929Z" fill="#E6E6E6"/>
<path d="M202 146.929H195.286V154.643H202V146.929Z" fill="#E6E6E6"/>
<path d="M215.429 146.929H208.714V154.643H215.429V146.929Z" fill="#E6E6E6"/>
<path d="M175.143 159.857H168.428V167.571H175.143V159.857Z" fill="#E6E6E6"/>
<path d="M188.572 159.857H181.857V167.571H188.572V159.857Z" fill="#E6E6E6"/>
<path d="M202 159.857H195.286V167.571H202V159.857Z" fill="#E6E6E6"/>
<path d="M215.429 159.857H208.714V167.571H215.429V159.857Z" fill="#E6E6E6"/>
<path d="M175.143 172.714H168.428V180.429H175.143V172.714Z" fill="#E6E6E6"/>
<path d="M188.572 172.714H181.857V180.429H188.572V172.714Z" fill="#E6E6E6"/>
<path d="M202 172.714H195.286V180.429H202V172.714Z" fill="#E6E6E6"/>
<path d="M215.429 172.714H208.714V180.429H215.429V172.714Z" fill="#E6E6E6"/>
<path d="M175.143 185.643H168.428V193.357H175.143V185.643Z" fill="#E6E6E6"/>
<path d="M188.572 185.643H181.857V193.357H188.572V185.643Z" fill="#E6E6E6"/>
<path d="M202 185.643H195.286V193.357H202V185.643Z" fill="#E6E6E6"/>
<path d="M215.429 185.643H208.714V193.357H215.429V185.643Z" fill="#E6E6E6"/>
<path d="M77.9999 89.5714H71.7856V96.6429H77.9999V89.5714Z" fill="#FAFAFA"/>
<path d="M77.9999 101.5H71.7856V108.571H77.9999V101.5Z" fill="#FAFAFA"/>
<path d="M77.9999 113.357H71.7856V120.429H77.9999V113.357Z" fill="#FAFAFA"/>
<path d="M77.9999 125.214H71.7856V132.286H77.9999V125.214Z" fill="#FAFAFA"/>
<path d="M77.9999 137.143H71.7856V144.214H77.9999V137.143Z" fill="#FAFAFA"/>
<path d="M77.9999 149H71.7856V156.071H77.9999V149Z" fill="#FAFAFA"/>
<path d="M77.9999 160.857H71.7856V167.929H77.9999V160.857Z" fill="#FAFAFA"/>
<path d="M77.9999 172.786H71.7856V179.857H77.9999V172.786Z" fill="#FAFAFA"/>
<path d="M86.2856 89.5714H80.0713V96.6429H86.2856V89.5714Z" fill="#FAFAFA"/>
<path d="M86.2856 101.5H80.0713V108.571H86.2856V101.5Z" fill="#FAFAFA"/>
<path d="M86.2856 113.357H80.0713V120.429H86.2856V113.357Z" fill="#FAFAFA"/>
<path d="M86.2856 125.214H80.0713V132.286H86.2856V125.214Z" fill="#FAFAFA"/>
<path d="M86.2856 137.143H80.0713V144.214H86.2856V137.143Z" fill="#FAFAFA"/>
<path d="M86.2856 149H80.0713V156.071H86.2856V149Z" fill="#FAFAFA"/>
<path d="M86.2856 160.857H80.0713V167.929H86.2856V160.857Z" fill="#FAFAFA"/>
<path d="M86.2856 172.786H80.0713V179.857H86.2856V172.786Z" fill="#FAFAFA"/>
<path d="M156.5 35.7143H149.786V43.4286H156.5V35.7143Z" fill="#FAFAFA"/>
<path d="M156.5 48.6429H149.786V56.3572H156.5V48.6429Z" fill="#FAFAFA"/>
<path d="M156.5 60.6429H149.786V68.3572H156.5V60.6429Z" fill="#FAFAFA"/>
<path d="M156.5 73.5H149.786V81.2143H156.5V73.5Z" fill="#FAFAFA"/>
<path d="M156.5 86.4286H149.786V94.1429H156.5V86.4286Z" fill="#FAFAFA"/>
<path d="M156.5 99.2858H149.786V107H156.5V99.2858Z" fill="#FAFAFA"/>
<path d="M156.5 112.214H149.786V119.929H156.5V112.214Z" fill="#FAFAFA"/>
<path d="M156.5 125.071H149.786V132.786H156.5V125.071Z" fill="#FAFAFA"/>
<path d="M257.286 24.5715H250.572V32.2858H257.286V24.5715Z" fill="#FAFAFA"/>
<path d="M257.286 37.4286H250.572V45.1429H257.286V37.4286Z" fill="#FAFAFA"/>
<path d="M257.286 50.3571H250.572V58.0714H257.286V50.3571Z" fill="#FAFAFA"/>
<path d="M257.286 63.2143H250.572V70.9286H257.286V63.2143Z" fill="#FAFAFA"/>
<path d="M257.286 76.1429H250.572V83.8572H257.286V76.1429Z" fill="#FAFAFA"/>
<path d="M257.286 89H250.572V96.7143H257.286V89Z" fill="#FAFAFA"/>
<path d="M257.286 101.929H250.572V109.643H257.286V101.929Z" fill="#FAFAFA"/>
<path d="M257.286 114.786H250.572V122.5H257.286V114.786Z" fill="#FAFAFA"/>
<path d="M305.357 83.7857H264.928V205.357H305.357V83.7857Z" fill="#E6E6E6"/>
<path d="M282.786 89.7857H270.929V97.5H282.786V89.7857Z" fill="#FAFAFA"/>
<path d="M282.786 102.714H270.929V110.429H282.786V102.714Z" fill="#FAFAFA"/>
<path d="M282.786 115.571H270.929V123.286H282.786V115.571Z" fill="#FAFAFA"/>
<path d="M282.786 128.5H270.929V136.214H282.786V128.5Z" fill="#FAFAFA"/>
<path d="M282.786 141.357H270.929V149.072H282.786V141.357Z" fill="#FAFAFA"/>
<path d="M282.786 154.214H270.929V161.929H282.786V154.214Z" fill="#FAFAFA"/>
<path d="M282.786 167.143H270.929V174.857H282.786V167.143Z" fill="#FAFAFA"/>
<path d="M282.786 180H270.929V187.714H282.786V180Z" fill="#FAFAFA"/>
<path d="M298.572 89.7857H286.714V97.5H298.572V89.7857Z" fill="#FAFAFA"/>
<path d="M298.572 102.714H286.714V110.429H298.572V102.714Z" fill="#FAFAFA"/>
<path d="M298.572 115.571H286.714V123.286H298.572V115.571Z" fill="#FAFAFA"/>
<path d="M298.572 128.5H286.714V136.214H298.572V128.5Z" fill="#FAFAFA"/>
<path d="M298.572 141.357H286.714V149.072H298.572V141.357Z" fill="#FAFAFA"/>
<path d="M298.572 154.214H286.714V161.929H298.572V154.214Z" fill="#FAFAFA"/>
<path d="M298.572 167.143H286.714V174.857H298.572V167.143Z" fill="#FAFAFA"/>
<path d="M298.572 180H286.714V187.714H298.572V180Z" fill="#FAFAFA"/>
<path d="M242.929 205.286V121.143H225.286V205.286H242.929Z" fill="#E0E0E0"/>
<path d="M228.786 124.571H226.643V130.286H228.786V124.571Z" fill="#FAFAFA"/>
<path d="M233 124.571H230.857V130.286H233V124.571Z" fill="#FAFAFA"/>
<path d="M237.286 124.571H235.143V130.286H237.286V124.571Z" fill="#FAFAFA"/>
<path d="M241.572 124.571H239.429V130.286H241.572V124.571Z" fill="#FAFAFA"/>
<path d="M228.786 134.143H226.643V139.857H228.786V134.143Z" fill="#FAFAFA"/>
<path d="M233 134.143H230.857V139.857H233V134.143Z" fill="#FAFAFA"/>
<path d="M237.286 134.143H235.143V139.857H237.286V134.143Z" fill="#FAFAFA"/>
<path d="M241.572 134.143H239.429V139.857H241.572V134.143Z" fill="#FAFAFA"/>
<path d="M228.786 143.786H226.643V149.5H228.786V143.786Z" fill="#FAFAFA"/>
<path d="M233 143.786H230.857V149.5H233V143.786Z" fill="#FAFAFA"/>
<path d="M237.286 143.786H235.143V149.5H237.286V143.786Z" fill="#FAFAFA"/>
<path d="M241.572 143.786H239.429V149.5H241.572V143.786Z" fill="#FAFAFA"/>
<path d="M228.786 153.357H226.643V159.071H228.786V153.357Z" fill="#FAFAFA"/>
<path d="M233 153.357H230.857V159.071H233V153.357Z" fill="#FAFAFA"/>
<path d="M237.286 153.357H235.143V159.071H237.286V153.357Z" fill="#FAFAFA"/>
<path d="M241.572 153.357H239.429V159.071H241.572V153.357Z" fill="#FAFAFA"/>
<path d="M228.786 163H226.643V168.714H228.786V163Z" fill="#FAFAFA"/>
<path d="M233 163H230.857V168.714H233V163Z" fill="#FAFAFA"/>
<path d="M237.286 163H235.143V168.714H237.286V163Z" fill="#FAFAFA"/>
<path d="M241.572 163H239.429V168.714H241.572V163Z" fill="#FAFAFA"/>
<path d="M228.786 172.643H226.643V178.357H228.786V172.643Z" fill="#FAFAFA"/>
<path d="M233 172.643H230.857V178.357H233V172.643Z" fill="#FAFAFA"/>
<path d="M237.286 172.643H235.143V178.357H237.286V172.643Z" fill="#FAFAFA"/>
<path d="M241.572 172.643H239.429V178.357H241.572V172.643Z" fill="#FAFAFA"/>
<path d="M228.786 182.214H226.643V187.929H228.786V182.214Z" fill="#FAFAFA"/>
<path d="M233 182.214H230.857V187.929H233V182.214Z" fill="#FAFAFA"/>
<path d="M237.286 182.214H235.143V187.929H237.286V182.214Z" fill="#FAFAFA"/>
<path d="M241.572 182.214H239.429V187.929H241.572V182.214Z" fill="#FAFAFA"/>
<path d="M228.786 191.857H226.643V197.571H228.786V191.857Z" fill="#FAFAFA"/>
<path d="M233 191.857H230.857V197.571H233V191.857Z" fill="#FAFAFA"/>
<path d="M237.286 191.857H235.143V197.571H237.286V191.857Z" fill="#FAFAFA"/>
<path d="M241.572 191.857H239.429V197.571H241.572V191.857Z" fill="#FAFAFA"/>
<path d="M31.7861 139.929H26.0718V144.714H31.7861V139.929Z" fill="#E6E6E6"/>
<path d="M43.2143 139.929H37.5V144.714H43.2143V139.929Z" fill="#E6E6E6"/>
<path d="M54.6428 139.929H48.9285V144.714H54.6428V139.929Z" fill="#E6E6E6"/>
<path d="M66.0715 139.929H60.3572V144.714H66.0715V139.929Z" fill="#E6E6E6"/>
<path d="M31.7861 148H26.0718V152.786H31.7861V148Z" fill="#E6E6E6"/>
<path d="M43.2143 148H37.5V152.786H43.2143V148Z" fill="#E6E6E6"/>
<path d="M54.6428 148H48.9285V152.786H54.6428V148Z" fill="#E6E6E6"/>
<path d="M66.0715 148H60.3572V152.786H66.0715V148Z" fill="#E6E6E6"/>
<path d="M31.7861 156.071H26.0718V160.857H31.7861V156.071Z" fill="#E6E6E6"/>
<path d="M43.2143 156.071H37.5V160.857H43.2143V156.071Z" fill="#E6E6E6"/>
<path d="M54.6428 156.071H48.9285V160.857H54.6428V156.071Z" fill="#E6E6E6"/>
<path d="M66.0715 156.071H60.3572V160.857H66.0715V156.071Z" fill="#E6E6E6"/>
<path d="M31.7861 164.143H26.0718V168.929H31.7861V164.143Z" fill="#E6E6E6"/>
<path d="M43.2143 164.143H37.5V168.929H43.2143V164.143Z" fill="#E6E6E6"/>
<path d="M54.6428 164.143H48.9285V168.929H54.6428V164.143Z" fill="#E6E6E6"/>
<path d="M66.0715 164.143H60.3572V168.929H66.0715V164.143Z" fill="#E6E6E6"/>
<path d="M31.7861 172.214H26.0718V177H31.7861V172.214Z" fill="#E6E6E6"/>
<path d="M43.2143 172.214H37.5V177H43.2143V172.214Z" fill="#E6E6E6"/>
<path d="M54.6428 172.214H48.9285V177H54.6428V172.214Z" fill="#E6E6E6"/>
<path d="M66.0715 172.214H60.3572V177H66.0715V172.214Z" fill="#E6E6E6"/>
<path d="M31.7861 180.286H26.0718V185.071H31.7861V180.286Z" fill="#E6E6E6"/>
<path d="M43.2143 180.286H37.5V185.071H43.2143V180.286Z" fill="#E6E6E6"/>
<path d="M54.6428 180.286H48.9285V185.071H54.6428V180.286Z" fill="#E6E6E6"/>
<path d="M66.0715 180.286H60.3572V185.071H66.0715V180.286Z" fill="#E6E6E6"/>
<path d="M31.7861 188.286H26.0718V193.071H31.7861V188.286Z" fill="#E6E6E6"/>
<path d="M43.2143 188.286H37.5V193.071H43.2143V188.286Z" fill="#E6E6E6"/>
<path d="M54.6428 188.286H48.9285V193.071H54.6428V188.286Z" fill="#E6E6E6"/>
<path d="M66.0715 188.286H60.3572V193.071H66.0715V188.286Z" fill="#E6E6E6"/>
</g>
</svg>
