<svg width="33" height="63" viewBox="0 0 33 63" fill="none" xmlns="http://www.w3.org/2000/svg">
<path d="M7.53742 12.8114C7.57104 10.7513 7.60466 8.69124 7.63198 6.59341C8.13379 4.997 9.15031 3.88483 10.6703 3.3457C11.509 3.04821 12.4239 2.94601 13.3135 2.82152C15.7832 2.47592 18.2722 2.40654 20.7535 2.57298C22.4281 2.6853 24.1234 2.86006 25.7479 3.26075C27.882 3.78717 29.0998 5.60913 29.1357 7.835C29.2015 11.9211 29.2831 16.007 29.3196 20.1362C29.0082 20.1784 28.7353 20.1775 28.4573 20.1426C28.4394 20.0449 28.4266 19.9811 28.4137 19.9173C28.0687 20.6028 27.8143 21.3058 27.5527 22.0061C27.1435 23.1015 26.7294 24.195 26.2853 25.2895C26.0961 25.2013 25.939 25.1129 25.7813 24.9897C26.4542 23.0936 27.1276 21.2322 27.8233 19.3646C27.8706 19.3042 27.8957 19.25 27.9561 19.1958C28.1311 19.2092 28.2708 19.2226 28.4723 19.2418C28.4327 18.956 28.3815 18.7122 28.3677 18.4663C28.2725 16.7787 28.1811 15.0909 28.0965 13.4028C28.0296 12.0692 27.9759 10.7351 27.9129 9.40132C27.8891 8.89801 27.8662 8.39416 27.8197 7.89274C27.806 7.74498 27.713 7.60468 27.6806 7.43466C27.7095 7.21827 27.7597 7.01538 27.7113 6.84022C27.4317 5.82973 26.8811 5.00735 25.8565 4.67876C25.0343 4.41508 24.1718 4.27809 23.325 4.09476C23.249 4.07829 23.1574 4.13438 23.0323 4.15306C21.3624 4.02834 19.7341 3.89224 18.1036 3.7954C17.6071 3.76591 17.1038 3.83911 16.6044 3.87501C15.7968 3.93306 14.9895 3.99503 14.1829 4.06415C13.9121 4.08735 13.6781 4.18332 13.6085 4.46159C13.6078 4.12963 13.4873 4.04018 13.1874 4.11383C12.6027 4.25741 12.0124 4.38248 11.4195 4.48698C9.95595 4.74496 8.90472 5.9763 8.89481 7.50654C8.8665 7.7958 8.82353 8.04501 8.81115 8.29576C8.71666 10.2091 8.63098 12.1229 8.53691 14.0363C8.45236 15.7563 8.36062 17.4758 8.25976 19.2003C8.25556 19.2018 8.26366 19.1985 8.30304 19.1925C8.49111 19.1909 8.6479 19.1919 8.83049 19.195C8.87349 19.1983 8.89068 19.1997 8.89667 19.2348C9.00025 19.5678 9.12201 19.8645 9.22867 20.1666C9.80038 21.7862 10.3683 23.4071 10.9232 25.0548C10.7728 25.2371 10.6368 25.3921 10.4975 25.5709C10.4926 25.6105 10.4909 25.6263 10.4732 25.638C10.4572 25.6339 10.4249 25.6271 10.4197 25.6089C10.4146 25.5908 10.3936 25.5595 10.3903 25.5269C10.2459 25.1028 10.1073 24.7104 9.96329 24.3199C9.46386 22.9663 8.96255 21.6133 8.46008 20.2299C8.40017 20.0778 8.34213 19.9559 8.25441 19.8431C8.20522 19.9321 8.18572 20.0121 8.13163 20.0974C7.83782 20.1294 7.57859 20.156 7.31937 20.1826C7.35587 18.5589 7.39237 16.9352 7.47795 15.3095C7.52703 15.7584 7.52703 16.2092 7.52703 16.66C7.56777 16.6591 7.6085 16.6582 7.64924 16.6573C7.64924 15.4673 7.65171 14.2772 7.64441 13.0873C7.64384 12.9951 7.57469 12.9034 7.53742 12.8114ZM29.0716 13.581C29.0716 12.5046 29.0716 11.4282 29.0716 10.3518C29.0526 10.3523 29.0337 10.3528 29.0148 10.3532C29.0148 11.6186 29.0148 12.8839 29.0148 14.1493C29.0337 14.1494 29.0526 14.1495 29.0715 14.1496C29.0715 13.988 29.0715 13.8265 29.0716 13.581ZM18.5382 2.71026C18.9594 2.71026 19.3806 2.71026 19.8018 2.71026C19.8007 2.6889 19.7996 2.66755 19.7984 2.6462C18.8931 2.6462 17.9877 2.6462 17.0823 2.6462C17.0822 2.66758 17.082 2.68895 17.0818 2.71032C17.5378 2.71032 17.9937 2.71032 18.5382 2.71026Z" fill="#F2B440"/>
<path d="M29.3822 22.393C29.4207 23.942 29.4786 25.4908 29.4939 27.0401C29.5298 30.6637 29.5606 34.2875 29.5637 37.9113C29.5656 40.2672 29.5667 42.6252 29.4744 44.9785C29.3705 47.627 29.2291 50.2779 28.9705 52.9145C28.831 54.3363 28.0306 55.4374 26.6541 56.0072C26.5194 56.063 26.372 56.0876 26.169 56.1208C26.0896 56.1159 26.0717 56.1169 26.0164 56.1149C25.8543 56.1103 25.7295 56.1087 25.6037 56.0825C25.6012 56.0415 25.5995 56.0251 25.6015 56.0104C25.6051 56.012 25.5971 56.0126 25.6121 56.012C25.6468 56.0075 25.664 55.9984 25.7134 55.9724C25.8217 55.9583 25.895 55.9561 25.9821 55.9695C26.0417 55.9712 26.0876 55.9571 26.166 55.9331C26.2988 55.7882 26.399 55.6532 26.4993 55.5183C26.3467 55.4458 26.1993 55.3558 26.0396 55.3071C25.9336 55.2749 25.8099 55.3018 25.7197 55.2767C26.2625 55.226 26.7544 55.18 27.1258 54.7194C27.7028 54.0036 28.0227 53.1992 28.0948 52.2862C28.1484 51.608 28.21 50.9305 28.2603 50.252C28.3191 49.4583 28.3694 48.6639 28.4176 47.9544C28.0742 47.9544 27.732 47.9544 27.4098 47.9327C27.4366 47.8076 27.485 47.6819 27.4441 47.6039C26.8359 46.4448 26.2201 45.2897 25.5924 44.1413C25.524 44.016 25.3707 43.9378 25.2787 43.8119C25.6422 43.6813 25.9836 43.5767 26.3508 43.4875C26.9137 44.4827 27.4508 45.4624 27.9949 46.4702C28.0301 46.5231 28.0582 46.548 28.082 46.5786C28.0777 46.5843 28.0854 46.5965 28.0883 46.6278C28.1172 46.6903 28.1431 46.7216 28.165 46.7639C28.161 46.7748 28.177 46.7918 28.1801 46.8162C28.207 46.8611 28.2307 46.8816 28.252 46.906C28.2496 46.9098 28.2509 46.9189 28.2541 46.9469C28.318 46.9868 28.3787 46.9986 28.4393 47.0104C28.4464 46.8922 28.4595 46.774 28.4595 46.6559C28.4608 42.7604 28.4607 38.8649 28.4609 34.9694C28.4609 34.8108 28.4609 34.6523 28.4609 34.4488C27.683 34.4488 26.9606 34.4488 26.2347 34.4066C26.2003 33.9362 26.144 33.5081 26.1424 33.0798C26.1335 30.7267 26.1363 28.3735 26.142 26.0204C26.1424 25.8666 26.2002 25.7129 26.2369 25.5814C26.2448 25.6186 26.2472 25.6337 26.2399 25.6899C26.2283 28.1971 26.2253 30.6632 26.2282 33.1294C26.2283 33.2323 26.2834 33.3352 26.3544 33.4445C27.02 33.4463 27.6441 33.4415 28.2925 33.4386C28.334 33.414 28.3513 33.3876 28.4002 33.3388C28.4408 33.2132 28.4573 33.1099 28.4573 33.0067C28.4585 29.3259 28.4585 25.6452 28.4569 21.9645C28.4569 21.8462 28.4398 21.7279 28.441 21.6117C28.4513 21.6137 28.4716 21.6192 28.5069 21.6178C28.8188 21.6952 29.0955 21.774 29.3721 21.8528C29.3792 21.9063 29.3864 21.9597 29.3734 22.0718C29.363 22.2179 29.3726 22.3055 29.3822 22.393ZM29.3372 39.4887C29.3372 40.2129 29.3372 40.9371 29.3372 41.6613C29.3572 41.6607 29.3771 41.6601 29.397 41.6595C29.397 38.1514 29.397 34.6434 29.397 31.1354C29.3771 31.1355 29.3571 31.1355 29.3372 31.1355C29.3372 33.8901 29.3372 36.6446 29.3372 39.4887Z" fill="#F0B341"/>
<path d="M29.3941 21.8292C29.0955 21.774 28.8188 21.6952 28.4969 21.5767C28.4552 21.0835 28.4588 20.63 28.4624 20.1765C28.7353 20.1775 29.0082 20.1784 29.3196 20.1779C29.803 20.2587 30.257 20.3095 30.6887 20.4368C30.8963 20.498 31.1305 20.6662 31.2308 20.8526C31.3852 21.1395 31.4348 21.4837 31.5288 21.8037C31.2686 21.8279 31.0081 21.8745 30.7482 21.8713C30.304 21.8658 29.8602 21.8292 29.3941 21.8292Z" fill="#FDDE44"/>
<path d="M25.6046 56.1072C25.7294 56.1088 25.8542 56.1103 26.0156 56.1237C26.0521 56.1354 26.0509 56.1531 26.0509 56.1531C25.9554 56.1939 25.8599 56.2347 25.7369 56.2899C24.8719 56.3592 24.0344 56.4142 23.1306 56.4406C22.8458 56.4005 22.6272 56.3889 22.4088 56.3575C22.4091 56.3378 22.4089 56.2983 22.4484 56.2988C23.2223 56.2615 23.9568 56.2237 24.7312 56.19C25.0491 56.1651 25.3269 56.1361 25.6046 56.1072Z" fill="#EDA94E"/>
<path d="M29.3935 22.3642C29.3726 22.3055 29.3629 22.2179 29.3651 22.1117C29.3863 22.1738 29.3956 22.2546 29.3935 22.3642Z" fill="#FDDE44"/>
<path d="M26.0712 56.1579C26.0509 56.1535 26.0521 56.1356 26.0529 56.1267C26.0716 56.1169 26.0896 56.1159 26.1346 56.1172C26.144 56.1436 26.1207 56.1579 26.0712 56.1579Z" fill="#F19F4B"/>
<path d="M8.73919 55.121C8.49026 54.7059 8.24133 54.2908 7.9947 53.8133C7.95142 53.7003 7.90585 53.6496 7.86028 53.5989C7.85005 53.5596 7.83983 53.5203 7.85094 53.4325C7.81138 53.2466 7.75047 53.1092 7.68957 52.9719C7.61999 52.2622 7.51354 51.5538 7.48729 50.8425C7.379 47.9079 7.2604 44.973 7.21103 42.0372C7.15158 38.5016 7.14272 34.9649 7.14344 31.4287C7.1438 29.6702 7.21444 27.9117 7.30207 26.1517C7.35085 26.9947 7.35085 27.8393 7.35085 28.6839C7.45262 28.636 7.47059 28.585 7.47064 28.5339C7.47221 26.8492 7.47439 25.1644 7.46735 23.4797C7.46684 23.3575 7.39758 23.2356 7.36028 23.1135C7.33733 22.6735 7.31438 22.2335 7.32541 21.7499C7.51502 21.7052 7.67066 21.7042 7.85718 21.7207C7.92705 21.9197 7.9997 22.1011 8.00005 22.2826C8.00672 25.8021 8.00371 29.3217 8.00862 32.8412C8.00885 33.011 8.06341 33.1807 8.1029 33.3702C8.1314 33.4149 8.15544 33.4311 8.20782 33.4418C8.24534 33.4423 8.2603 33.4398 8.27719 33.4445C8.27912 33.4518 8.26841 33.4623 8.28829 33.4894C8.42971 33.5503 8.55082 33.6115 8.67286 33.6135C9.27689 33.623 9.88116 33.6169 10.4877 33.6568C10.4934 33.9398 10.4969 34.1824 10.4985 34.4455C10.4966 34.4661 10.4932 34.5073 10.4746 34.5038C10.456 34.5002 10.4181 34.5015 10.3968 34.493C10.3605 34.4877 10.3455 34.4909 10.3317 34.4879C10.3329 34.4818 10.3246 34.4726 10.292 34.4559C9.61949 34.4497 8.97956 34.4602 8.31265 34.4802C8.26553 34.5211 8.2454 34.5526 8.20992 34.6188C8.18989 34.6979 8.1811 34.7424 8.18109 34.7868C8.18036 38.8482 8.18015 42.9097 8.18114 46.9711C8.18116 47.0585 8.19539 47.1458 8.20299 47.2332C8.22399 47.2278 8.2472 47.2262 8.265 47.2154C8.27287 47.2106 8.26976 47.1875 8.29797 47.1564C8.3783 47.0289 8.4323 46.9175 8.50875 46.7866C8.79152 46.2841 9.05679 45.8038 9.31093 45.3175C9.65257 44.6639 9.98562 44.0056 10.3467 43.3385C10.3844 43.3162 10.3979 43.3046 10.4309 43.295C10.4504 43.2969 10.4894 43.2996 10.4903 43.3356C10.5687 43.4684 10.6275 43.61 10.7277 43.6525C10.9336 43.74 11.1617 43.7744 11.3503 43.8376C11.2168 43.9811 11.0948 44.1072 11.0132 44.2558C10.3857 45.3977 9.76601 46.544 9.12245 47.7077C9.0911 47.8019 9.0812 47.8772 9.03789 47.9568C8.76799 47.961 8.5315 47.961 8.27248 47.961C8.27248 48.1266 8.26306 48.29 8.27397 48.452C8.36165 49.7535 8.40201 51.0611 8.56149 52.3537C8.66777 53.2151 8.93042 54.0401 9.5719 54.7207C9.94946 55.1213 10.391 55.1843 10.813 55.2999C10.1186 55.2932 10.1003 55.3092 10.1367 55.827C9.98423 55.838 9.87293 55.8438 9.76164 55.8496C9.76164 55.8496 9.72497 55.8445 9.69792 55.8183C9.6514 55.77 9.62719 55.7568 9.59824 55.7524C9.49944 55.6968 9.40063 55.6412 9.27233 55.5424C9.15298 55.436 9.06314 55.3728 8.9733 55.3095C8.9733 55.3095 8.98153 55.3037 8.9776 55.2773C8.89551 55.2076 8.81735 55.1643 8.73919 55.121Z" fill="#F2B440"/>
<path d="M22.4089 56.2982C22.4089 56.2982 22.4091 56.3377 22.3688 56.3578C21.9237 56.3784 21.5161 56.3513 21.1147 56.3897C20.858 56.4142 20.6104 56.5355 20.3587 56.6134C19.0538 56.6191 17.7489 56.6247 16.3916 56.5904C16.2752 56.523 16.2123 56.4741 16.1474 56.4714C15.3305 56.4364 14.5128 56.4181 13.6966 56.3719C13.4565 56.3583 13.2206 56.2704 13.0203 56.2121C13.3327 56.2378 13.6082 56.2638 13.8824 56.2994C14.1742 56.3372 14.3682 56.244 14.4501 55.9278C16.8914 55.929 19.2935 55.9297 21.6953 55.9648C21.7678 56.2662 21.7678 56.2662 22.0304 56.1896C21.9755 56.1006 21.9231 56.0155 21.8948 55.9053C22.0339 55.8745 22.1488 55.8688 22.2599 55.8926C22.3071 56.0474 22.358 56.1728 22.4089 56.2982Z" fill="#F5B139"/>
<path d="M7.82631 21.7031C7.67068 21.7042 7.51505 21.7053 7.32024 21.709C6.73999 21.7691 6.19922 21.8296 5.65766 21.8818C5.51386 21.8956 5.36764 21.8839 5.23122 21.8839C5.02541 21.1406 5.62352 20.3464 6.41044 20.2775C6.68879 20.2531 6.9674 20.2317 7.28263 20.1958C7.5786 20.156 7.83783 20.1294 8.13901 20.1388C8.17907 20.6537 8.17718 21.1326 8.15579 21.6138C8.1363 21.6162 8.09736 21.6215 8.06713 21.6197C7.96671 21.6462 7.89651 21.6747 7.82631 21.7031Z" fill="#FDDD42"/>
<path d="M12.9828 56.2166C13.2206 56.2704 13.4565 56.3583 13.6966 56.3719C14.5128 56.4181 15.3305 56.4364 16.1474 56.4713C16.2123 56.4741 16.2752 56.523 16.3509 56.5818C15.626 56.5841 14.8883 56.5705 14.1529 56.5221C13.1665 56.4571 12.1785 56.3931 11.1979 56.2728C10.7243 56.2148 10.2661 56.0291 9.78131 55.8754C9.87295 55.8438 9.98424 55.838 10.1505 55.8326C10.2055 55.833 10.2271 55.8542 10.2303 55.8788C10.2904 55.9148 10.3472 55.9261 10.4416 55.9354C11.3138 56.0277 12.1483 56.1221 12.9828 56.2166Z" fill="#F0B64A"/>
<path d="M7.35336 23.1552C7.39759 23.2356 7.46685 23.3576 7.46736 23.4798C7.47439 25.1645 7.47222 26.8492 7.47065 28.534C7.4706 28.585 7.45263 28.6361 7.35085 28.6839C7.35085 27.8393 7.35085 26.9948 7.32529 26.1237C7.3153 25.1304 7.33086 24.1636 7.35336 23.1552Z" fill="#FBB42C"/>
<path d="M7.52885 12.8498C7.57469 12.9034 7.64384 12.9951 7.64441 13.0873C7.65171 14.2772 7.64924 15.4672 7.64924 16.6573C7.6085 16.6582 7.56777 16.6591 7.52703 16.66C7.52703 16.2092 7.52703 15.7584 7.50111 15.2813C7.49022 14.466 7.50525 13.6771 7.52885 12.8498Z" fill="#FAB32E"/>
<path d="M20.3993 56.6236C20.6103 56.5355 20.858 56.4142 21.1147 56.3897C21.5161 56.3513 21.9236 56.3784 22.3686 56.3775C22.6272 56.3889 22.8458 56.4005 23.0894 56.4368C22.2229 56.519 21.3314 56.5764 20.3993 56.6236Z" fill="#F0B64A"/>
<path d="M7.68253 53.0019C7.75049 53.1093 7.8114 53.2466 7.851 53.4019C7.77828 53.2905 7.72687 53.1612 7.68253 53.0019Z" fill="#F0B64A"/>
<path d="M8.97961 55.3381C9.06315 55.3728 9.15299 55.4361 9.24662 55.529C9.16224 55.4946 9.07408 55.4306 8.97961 55.3381Z" fill="#F0B64A"/>
<path d="M8.74619 55.147C8.81735 55.1643 8.89551 55.2076 8.97487 55.2816C8.90177 55.2658 8.82748 55.2194 8.74619 55.147Z" fill="#F0B64A"/>
<path d="M7.85544 53.6265C7.90585 53.6497 7.95142 53.7003 7.99449 53.7808C7.94486 53.7583 7.89773 53.7061 7.85544 53.6265Z" fill="#F0B64A"/>
<path d="M9.60852 55.7712C9.62719 55.7567 9.6514 55.77 9.68126 55.8106C9.66129 55.8278 9.63701 55.8149 9.60852 55.7712Z" fill="#F0B64A"/>
<path d="M10.5004 34.425C10.497 34.1824 10.4935 33.9398 10.4914 33.6278C10.4997 33.5198 10.5067 33.4814 10.5297 33.431C10.5647 33.3993 10.5776 33.3762 10.6107 33.3235C10.6485 33.2395 10.67 33.1818 10.67 33.124C10.6718 30.6618 10.6724 28.1997 10.6682 25.7376C10.6681 25.6775 10.6117 25.6176 10.5612 25.556C10.5409 25.5544 10.5008 25.5471 10.5008 25.5471C10.6368 25.3921 10.7728 25.2371 10.9589 25.0517C11.3198 24.935 11.6329 24.8562 11.941 24.761C14.0157 24.1206 16.1336 23.7601 18.3483 23.7599C20.4975 23.753 22.5496 24.1001 24.5621 24.7182C24.9624 24.8411 25.375 24.9235 25.7819 25.0245C25.939 25.1129 26.0961 25.2012 26.2843 25.3185C26.2874 25.418 26.2594 25.4886 26.2313 25.5592C26.2002 25.7129 26.1424 25.8666 26.142 26.0204C26.1363 28.3735 26.1335 30.7267 26.1423 33.0798C26.144 33.5081 26.2003 33.9362 26.2247 34.4402C26.2135 36.6554 26.2062 38.7947 26.2057 40.934C26.2055 41.6609 26.2223 42.3878 26.228 43.1397C26.2318 43.18 26.2388 43.1953 26.2487 43.2381C26.2761 43.3344 26.3006 43.4032 26.3251 43.472C25.9836 43.5767 25.6422 43.6813 25.2484 43.8281C24.6408 44.0041 24.0902 44.1646 23.5291 44.2654C22.7362 44.4079 21.9371 44.5193 21.1375 44.6188C20.6731 44.6766 20.2031 44.6997 19.7349 44.7118C19.2388 44.7248 18.7418 44.7063 18.2128 44.6902C18.1374 44.6909 18.0943 44.7028 18.0147 44.6964C17.7366 44.6766 17.495 44.6751 17.2131 44.6638C16.3068 44.6118 15.4401 44.5828 14.5757 44.5203C14.2901 44.4996 14.0126 44.3831 13.7281 44.3276C13.3228 44.2485 12.9122 44.1966 12.5083 44.1119C12.1295 44.0324 11.7563 43.9255 11.3807 43.8307C11.1617 43.7744 10.9336 43.74 10.7277 43.6525C10.6275 43.61 10.5687 43.4684 10.5136 43.3345C10.5516 43.2971 10.5672 43.2969 10.6092 43.2703C10.6478 43.1716 10.6703 43.0991 10.6704 43.0266C10.6721 40.3002 10.6729 37.5739 10.6681 34.8475C10.6679 34.7376 10.6134 34.6278 10.575 34.4984C10.5492 34.4546 10.5274 34.4366 10.5004 34.425ZM15.0534 28.5121C14.528 28.5242 14.4483 28.9518 14.2631 29.3658C14.2195 29.4762 14.172 29.5852 14.1327 29.6971C13.8722 30.4386 13.5665 31.1682 13.3678 31.9263C13.1808 32.6395 13.4296 32.8984 14.1502 32.8991C15.4678 32.9003 16.7877 32.8511 18.1024 32.913C19.4404 32.976 20.4107 32.2305 21.4926 31.5492C21.8027 31.4027 22.0851 31.2303 22.1814 30.7847C22.1916 30.5774 22.1997 30.37 22.2122 30.1629C22.3124 28.5093 21.812 28.4054 20.4453 28.3681C18.7672 28.3223 17.0858 28.3942 15.406 28.422C15.3109 28.4235 15.2168 28.4864 15.0534 28.5121ZM18.273 44.5498C18.723 44.5498 19.1729 44.5498 19.6229 44.5498C19.6218 44.5288 19.6207 44.5078 19.6197 44.4868C18.804 44.4868 17.9884 44.4868 17.1727 44.4868C17.1725 44.5078 17.1723 44.5288 17.1721 44.5498C17.5097 44.5498 17.8473 44.5498 18.273 44.5498Z" fill="#FEDE40"/>
<path d="M27.6563 7.46092C27.713 7.60464 27.8061 7.74493 27.8197 7.8927C27.8662 8.39412 27.8891 8.89797 27.9129 9.40128C27.976 10.735 28.0296 12.0692 28.0965 13.4027C28.1811 15.0909 28.2725 16.7787 28.3677 18.4663C28.3815 18.7122 28.4327 18.956 28.4723 19.2418C28.2708 19.2225 28.1311 19.2092 27.9264 19.1834C27.6363 19.0994 27.4112 19.0276 27.1828 18.9519C27.1795 18.9479 27.1824 18.9579 27.178 18.9296C27.0667 18.8766 26.9597 18.8518 26.8205 18.824C26.7497 18.803 26.711 18.785 26.6637 18.7398C26.5073 18.6735 26.3595 18.6346 26.2094 18.5904C26.207 18.5851 26.2066 18.5967 26.197 18.5665C26.1079 18.5217 26.0285 18.507 25.9534 18.4885C25.9577 18.4846 25.9538 18.4955 25.9369 18.4674C25.8575 18.4338 25.795 18.4283 25.7213 18.4271C25.7102 18.4313 25.6907 18.4176 25.6771 18.3866C24.7367 18.098 23.8172 17.8084 22.8809 17.593C22.1398 17.4226 21.378 17.3431 20.6178 17.1878C20.5215 17.1167 20.433 17.0505 20.3441 17.05C19.1485 17.0429 17.9528 17.044 16.7572 17.0489C16.716 17.0491 16.675 17.1094 16.6065 17.1658C15.5095 17.352 14.4369 17.4959 13.3721 17.6852C12.9696 17.7567 12.5854 17.9329 12.1809 18.0688C12.169 18.0762 12.1436 18.0644 12.1051 18.0548C10.9793 18.4278 9.892 18.8103 8.8047 19.1929C8.64792 19.1919 8.49113 19.1908 8.30312 19.1926C8.2719 19.1954 8.27206 19.1955 8.27206 19.1955C8.36063 17.4758 8.45237 15.7562 8.53692 14.0363C8.63099 12.1229 8.71667 10.2091 8.81116 8.29572C8.82354 8.04497 8.86651 7.79576 8.92722 7.50234C10.1624 6.88448 11.3622 6.30225 12.5707 5.73928C13.1187 5.484 13.4907 5.10117 13.6146 4.49536C13.6781 4.18328 13.9121 4.08731 14.1829 4.0641C14.9896 3.99498 15.7969 3.93301 16.6044 3.87497C17.1038 3.83907 17.6071 3.76587 18.1036 3.79535C19.7341 3.89219 21.3624 4.0283 23.0243 4.18782C23.0458 4.94911 23.4037 5.41235 24.039 5.71263C25.2496 6.28492 26.4511 6.87704 27.6563 7.46092ZM14.8215 13.4753C14.8215 13.4753 14.8581 13.4632 14.9069 13.4069C14.9172 12.0139 14.933 10.6209 14.9269 9.22798C14.9264 9.12212 14.7791 8.93694 14.6862 8.92762C14.4729 8.90619 14.1874 8.73319 14.053 9.12504C14.053 9.12504 14.0413 9.16447 13.992 9.21867C13.9834 10.582 13.9739 11.9454 13.9698 13.3088C13.9696 13.3584 14.0221 13.4082 14.1012 13.5059C14.2908 13.5116 14.4803 13.5172 14.713 13.5319C14.7435 13.5259 14.7671 13.5096 14.8215 13.4753ZM23.2799 13.433C23.2708 13.2964 23.2617 13.1597 23.2685 12.9907C23.2685 12.9907 23.2749 12.9552 23.2756 12.8809C23.2249 12.836 23.1677 12.7465 23.1246 12.753C22.5789 12.8349 22.5749 12.4957 22.5813 12.0989C22.5962 11.1734 22.5756 10.2473 22.5916 9.32183C22.5974 8.98588 22.4159 8.96432 22.1692 8.97725C21.9403 8.98924 21.6786 8.91421 21.6917 9.30952C21.7106 9.87627 21.6963 10.4441 21.6962 11.0115C21.6962 11.5734 21.6962 12.1353 21.6962 12.6849C20.8568 12.8245 20.7681 12.9413 21.0354 13.6018C21.7196 13.6141 22.4039 13.6301 23.0882 13.6324C23.1542 13.6327 23.2206 13.5475 23.2799 13.433ZM15.8927 9.0284C15.3158 9.01592 15.2899 9.05364 15.5079 9.59633C15.6687 9.99674 15.797 10.4155 16.0025 10.7913C16.2227 11.194 16.1665 11.5385 15.983 11.9269C15.7454 12.4297 15.5552 12.9551 15.3391 13.4839C16.0809 13.6127 16.0794 13.6121 16.3217 13.0017C16.4228 12.7469 16.5316 12.4951 16.6659 12.172C16.8078 12.5295 16.9172 12.8048 17.0265 13.0802C17.2375 13.6118 17.3027 13.6406 17.9669 13.4632C17.7274 12.8702 17.4684 12.2892 17.2638 11.6894C17.1908 11.4753 17.1879 11.1941 17.2604 10.9805C17.4643 10.3798 17.7241 9.7984 17.9592 9.21588C17.4387 8.89345 17.2511 8.96061 17.044 9.49496C16.9345 9.77756 16.8073 10.0532 16.6826 10.3448C16.4204 9.88275 16.1866 9.47074 15.8927 9.0284ZM20.2405 13.3837C20.5294 11.9859 20.8183 10.5882 21.1111 9.17196C20.8468 9.17196 20.6175 9.17196 20.3848 9.17196C20.347 9.3439 20.3 9.48724 20.2866 9.6337C20.2609 9.91409 20.1594 10.079 19.842 10.0452C19.5652 10.0158 19.2537 10.1404 19.1857 9.67106C19.1047 9.1123 18.9407 9.04765 18.3438 9.22348C18.3836 9.36162 18.4328 9.49781 18.4619 9.63823C18.7118 10.8466 18.9551 12.0564 19.2109 13.2635C19.2321 13.3633 19.33 13.5231 19.3936 13.5237C19.6648 13.5266 19.9364 13.4801 20.2405 13.3837ZM18.8941 4.31233C17.3349 4.30382 15.776 4.30044 14.2049 4.57572C14.2236 4.80115 14.239 4.9873 14.2583 5.22053C16.9891 4.876 19.6809 4.89246 22.3587 5.21064C22.5703 4.58088 22.5472 4.538 21.9452 4.49766C20.9581 4.43149 19.9704 4.37389 18.8941 4.31233Z" fill="#FEDD40"/>
<path d="M25.6907 18.4177C25.6907 18.4177 25.7102 18.4313 25.7443 18.447C25.8368 18.4736 25.8953 18.4846 25.9538 18.4956C25.9538 18.4956 25.9577 18.4846 25.9713 18.5115C26.0588 18.5578 26.1327 18.5773 26.2066 18.5967C26.2066 18.5967 26.207 18.5851 26.2292 18.6103C26.3917 18.6794 26.532 18.7233 26.6724 18.7671C26.711 18.7851 26.7497 18.803 26.8421 18.8453C26.9913 18.8991 27.0869 18.9285 27.1824 18.9579C27.1824 18.9579 27.1795 18.9479 27.2031 18.9741C27.4182 19.1238 27.6096 19.2473 27.8011 19.3709C27.1276 21.2322 26.4542 23.0935 25.7813 24.9897C25.375 24.9235 24.9624 24.8411 24.5621 24.7182C22.5496 24.1002 20.4975 23.753 18.3463 23.7234C18.2779 23.5348 18.2318 23.3904 18.2314 23.2459C18.2267 21.3908 18.2265 19.5356 18.2326 17.6805C18.2331 17.5393 18.2895 17.3983 18.358 17.2499C19.4119 17.3184 20.4404 17.3176 21.4401 17.4884C22.8681 17.7323 24.2749 18.1018 25.6907 18.4177Z" fill="#2F6679"/>
<path d="M18.3199 17.2572C18.2895 17.3983 18.2331 17.5393 18.2326 17.6805C18.2265 19.5356 18.2267 21.3908 18.2314 23.2459C18.2318 23.3904 18.2779 23.5348 18.3047 23.7157C16.1336 23.7601 14.0157 24.1206 11.941 24.761C11.6329 24.8562 11.3198 24.935 10.9733 25.0245C10.3683 23.4071 9.80039 21.7862 9.22868 20.1666C9.12202 19.8645 9.00026 19.5677 8.92902 19.2295C10.0296 18.8152 11.0866 18.4398 12.1436 18.0644C12.1436 18.0644 12.169 18.0762 12.2173 18.0665C13.1873 17.8945 14.1073 17.7223 15.0312 17.5739C15.5441 17.4916 16.0624 17.44 16.5799 17.3913C17.159 17.3367 17.7398 17.3011 18.3199 17.2572Z" fill="#34445B"/>
<path d="M26.2369 25.5814C26.2594 25.4886 26.2874 25.418 26.3165 25.3183C26.7294 24.195 27.1435 23.1014 27.5527 22.006C27.8143 21.3058 28.0687 20.6028 28.4137 19.9173C28.4266 19.9811 28.4394 20.0449 28.4573 20.1426C28.4588 20.63 28.4552 21.0834 28.4616 21.578C28.4716 21.6192 28.4513 21.6137 28.4222 21.6132C28.3931 21.6126 28.3555 21.6156 28.3302 21.6427C28.2939 21.8322 28.2734 21.9946 28.2733 22.1571C28.2703 25.917 28.2695 29.6769 28.2683 33.4368C27.6441 33.4415 27.02 33.4463 26.3565 33.4028C26.3166 30.9438 26.3174 28.5331 26.3129 26.1223C26.3126 25.9644 26.2716 25.8066 26.2495 25.6488C26.2472 25.6337 26.2448 25.6186 26.2369 25.5814Z" fill="#34445B"/>
<path d="M8.46193 20.2601C8.96253 21.6133 9.46385 22.9663 9.96327 24.3199C10.1073 24.7103 10.2459 25.1028 10.3655 25.5542C10.3349 25.7171 10.3179 25.8201 10.3179 25.9232C10.3173 28.4259 10.3186 30.9287 10.2781 33.4393C9.61024 33.4418 8.98366 33.4365 8.35782 33.3897C8.35953 29.1536 8.35934 24.9588 8.36572 20.7641C8.36598 20.596 8.42845 20.4281 8.46193 20.2601Z" fill="#34445B"/>
<path d="M13.6085 4.46158C13.4907 5.1012 13.1187 5.48403 12.5707 5.73931C11.3621 6.30228 10.1624 6.88451 8.9267 7.46304C8.90471 5.97629 9.95593 4.74495 11.4195 4.48697C12.0124 4.38247 12.6027 4.25741 13.1874 4.11382C13.4873 4.04017 13.6078 4.12962 13.6085 4.46158ZM12.3936 5.22726C12.5612 5.20024 12.8417 5.31673 12.7865 4.99006C12.7716 4.90251 12.5386 4.83102 12.3951 4.79348C12.2702 4.76081 12.1299 4.79278 11.9971 4.78505C11.6528 4.76499 11.5819 4.912 11.7256 5.22715C11.9275 5.22715 12.1191 5.22715 12.3936 5.22726ZM11.1446 5.57754C10.9696 5.57763 10.7909 5.55668 10.6212 5.58683C10.5384 5.60154 10.4722 5.71153 10.3985 5.77839C10.4758 5.85667 10.544 5.98728 10.632 6.00261C10.8304 6.03715 11.0422 6.03767 11.2413 6.00619C11.3509 5.98888 11.446 5.87864 11.5476 5.81029C11.4404 5.73276 11.3332 5.65522 11.1446 5.57754Z" fill="#697980"/>
<path d="M27.6806 7.43462C26.4511 6.87704 25.2496 6.28492 24.0389 5.71263C23.4037 5.41235 23.0458 4.94911 23.065 4.19153C23.1574 4.13433 23.249 4.07825 23.325 4.09471C24.1718 4.27805 25.0343 4.41503 25.8565 4.67872C26.8811 5.0073 27.4317 5.82969 27.7113 6.84017C27.7597 7.01533 27.7095 7.21823 27.6806 7.43462ZM25.3406 6.01431C25.5606 6.01423 25.7848 6.03953 25.9987 6.00342C26.1062 5.98528 26.1952 5.85548 26.2925 5.77617C26.2029 5.70951 26.1192 5.5982 26.0225 5.58528C25.8064 5.55641 25.583 5.56587 25.3642 5.58205C25.2778 5.58844 25.1956 5.65424 25.1115 5.693C25.1623 5.79848 25.2131 5.90396 25.3406 6.01431ZM24.573 5.22744C24.7389 5.19751 25.0203 5.32266 24.9722 4.99586C24.9594 4.90875 24.7268 4.82383 24.5838 4.79479C24.4131 4.76014 24.2262 4.76437 24.0545 4.79641C23.9732 4.81157 23.8565 4.92999 23.8557 5.00288C23.8547 5.07633 23.9664 5.19477 24.0485 5.21594C24.1875 5.25182 24.342 5.2267 24.573 5.22744Z" fill="#697980"/>
<path d="M8.46008 20.2298C8.42846 20.4281 8.36599 20.596 8.36574 20.7641C8.35936 24.9588 8.35954 29.1536 8.33594 33.3983C8.29834 33.4529 8.28338 33.4576 8.26842 33.4623C8.26842 33.4623 8.27913 33.4518 8.27663 33.4128C8.25532 33.2728 8.23652 33.1719 8.21607 33.0298C8.2155 31.7097 8.21659 30.4307 8.2346 29.1243C8.24023 28.9285 8.22896 28.7602 8.21593 28.5507C8.21535 27.5289 8.21653 26.5483 8.23459 25.5402C8.2402 25.3444 8.22893 25.1761 8.2166 24.9817C8.21625 24.9208 8.21696 24.886 8.23459 24.8237C8.24023 24.6279 8.22896 24.4596 8.21658 24.265C8.21615 24.2039 8.21682 24.1689 8.23542 24.1017C8.24146 23.6656 8.22956 23.2618 8.21606 22.8227C8.21576 22.6704 8.21706 22.5533 8.23602 22.4027C8.26383 21.5242 8.27396 20.6791 8.2841 19.834C8.34213 19.9559 8.40017 20.0777 8.46008 20.2298Z" fill="#283145"/>
<path d="M10.3195 33.4315C10.3186 30.9287 10.3173 28.4259 10.3179 25.9232C10.318 25.8201 10.3349 25.7171 10.3688 25.5868C10.3936 25.5595 10.4146 25.5908 10.4131 25.6362C10.4271 25.7329 10.4427 25.7843 10.4609 25.8668C10.4625 25.9606 10.4614 26.0232 10.4413 26.1176C10.4154 28.5774 10.4085 31.0052 10.3809 33.4378C10.3603 33.4426 10.3195 33.4315 10.3195 33.4315Z" fill="#203247"/>
<path d="M10.4603 26.0857C10.4614 26.0232 10.4624 25.9606 10.4734 25.8362C10.4852 25.7303 10.4872 25.6862 10.4892 25.6421C10.4909 25.6263 10.4926 25.6105 10.4975 25.5709C10.5008 25.5472 10.5409 25.5544 10.5618 25.5979C10.5832 28.2108 10.5838 30.7802 10.5844 33.3496C10.5776 33.3762 10.5647 33.3994 10.5233 33.4282C10.501 33.4375 10.4877 33.4355 10.4896 33.394C10.4924 31.4345 10.4957 29.5163 10.4927 27.5982C10.4919 27.094 10.4716 26.5899 10.4603 26.0857Z" fill="#F6DF5B"/>
<path d="M12.1051 18.0548C11.0865 18.4398 10.0295 18.8152 8.9402 19.1958C8.89067 19.1996 8.87347 19.1983 8.83047 19.1949C9.89198 18.8104 10.9793 18.4278 12.1051 18.0548Z" fill="#DDD064"/>
<path d="M29.0715 13.6229C29.0715 13.8264 29.0715 13.988 29.0715 14.1496C29.0526 14.1495 29.0337 14.1494 29.0148 14.1493C29.0148 12.8839 29.0148 11.6186 29.0148 10.3532C29.0337 10.3527 29.0526 10.3522 29.0716 10.3517C29.0716 11.4281 29.0716 12.5046 29.0715 13.6229Z" fill="#FBB32A"/>
<path d="M18.4939 2.71026C17.9937 2.7103 17.5378 2.7103 17.0818 2.7103C17.082 2.68892 17.0821 2.66755 17.0823 2.64618C17.9877 2.64618 18.893 2.64618 19.7984 2.64618C19.7996 2.66753 19.8007 2.68888 19.8018 2.71023C19.3806 2.71023 18.9594 2.71023 18.4939 2.71026Z" fill="#FAB227"/>
<path d="M8.25442 19.843C8.27396 20.6791 8.26383 21.5242 8.2237 22.3627C8.18756 22.1079 8.18142 21.8596 8.17527 21.6114C8.17717 21.1325 8.17906 20.6537 8.17358 20.1334C8.18572 20.012 8.20523 19.932 8.25442 19.843Z" fill="#7C705B"/>
<path d="M27.8233 19.3646C27.6096 19.2473 27.4182 19.1238 27.2064 18.9781C27.4112 19.0277 27.6363 19.0994 27.8911 19.1834C27.8957 19.2499 27.8706 19.3041 27.8233 19.3646Z" fill="#DDD064"/>
<path d="M10.4732 25.638C10.4872 25.6862 10.4852 25.7303 10.4707 25.805C10.4427 25.7843 10.4271 25.7329 10.4182 25.6544C10.4249 25.6271 10.4572 25.6339 10.4732 25.638Z" fill="#757A5C"/>
<path d="M8.27285 19.1953C8.26405 19.1987 8.25531 19.2022 8.25984 19.2006C8.2731 19.1955 8.27285 19.1953 8.27285 19.1953Z" fill="#FEDD40"/>
<path d="M7.60266 17.5334C7.59675 17.537 7.60856 17.5298 7.60266 17.5334Z" fill="#FAB32E"/>
<path d="M22.2636 55.8631C22.1488 55.8688 22.0339 55.8745 21.8656 55.9047C21.7733 55.9296 21.7344 55.93 21.6955 55.9304C19.2934 55.9297 16.8914 55.929 14.4331 55.8995C14.2246 55.7998 14.0778 55.6857 13.919 55.6647C12.898 55.5301 11.8744 55.4159 10.8517 55.295C10.391 55.1844 9.94947 55.1213 9.57191 54.7207C8.93042 54.0401 8.66777 53.2151 8.5615 52.3537C8.40202 51.0611 8.36166 49.7535 8.27398 48.452C8.26306 48.29 8.27249 48.1266 8.27249 47.961C8.53151 47.961 8.768 47.961 9.0682 47.9703C9.52542 48.0641 9.91892 48.1487 10.3428 48.2341C10.4121 48.2449 10.4511 48.2549 10.5013 48.2938C10.9791 48.4147 11.4457 48.5066 11.9436 48.5988C12.0154 48.608 12.0559 48.6169 12.1069 48.6554C12.2674 48.7275 12.4149 48.7907 12.5677 48.809C13.061 48.8679 13.5562 48.9104 14.0808 48.9572C14.1502 48.9621 14.1896 48.9689 14.2497 49.0009C14.7307 49.0638 15.1909 49.1014 15.6833 49.1362C15.7798 49.1393 15.844 49.1453 15.9223 49.1828C16.1351 49.2412 16.3331 49.2825 16.5327 49.2923C17.2499 49.3275 17.9675 49.3521 18.6422 49.3839C18.1234 49.387 17.6474 49.387 17.1714 49.387C17.9521 49.4776 18.7315 49.4819 19.5107 49.4705C19.5848 49.4695 19.6575 49.3701 19.7718 49.3115C20.3794 49.2707 20.9481 49.2526 21.5123 49.1917C21.8136 49.1592 22.1071 49.0529 22.4342 48.9722C22.5055 48.9639 22.5468 48.9632 22.6146 48.9833C23.0861 48.95 23.5369 48.9249 23.9746 48.8351C24.553 48.7164 25.1211 48.547 25.7248 48.3861C26.3005 48.2334 26.8452 48.0939 27.3898 47.9544C27.732 47.9544 28.0742 47.9544 28.4176 47.9544C28.3694 48.6639 28.3191 49.4583 28.2603 50.252C28.21 50.9305 28.1484 51.608 28.0948 52.2862C28.0227 53.1992 27.7027 54.0036 27.1257 54.7194C26.7544 55.18 26.2625 55.226 25.6824 55.284C24.6549 55.4301 23.6893 55.5366 22.7264 55.6636C22.5662 55.6847 22.4176 55.7944 22.2636 55.8631Z" fill="#FFDE3F"/>
<path d="M22.5881 48.9626C22.5468 48.9632 22.5056 48.9639 22.3978 48.9645C21.955 48.9942 21.5788 49.0238 21.1584 49.0484C20.1529 49.0666 19.1918 49.0899 18.2298 49.0717C18.2287 47.7668 18.2239 46.5035 18.2337 45.2402C18.235 45.0731 18.3106 44.9066 18.3518 44.7393C18.3281 44.7309 18.2867 44.7162 18.2452 44.7015C18.7418 44.7063 19.2388 44.7248 19.7349 44.7118C20.2031 44.6997 20.6731 44.6766 21.1375 44.6188C21.9371 44.5193 22.7362 44.4079 23.5291 44.2654C24.0902 44.1645 24.6408 44.0041 25.2264 43.854C25.3707 43.9378 25.5239 44.016 25.5924 44.1413C26.2201 45.2897 26.8359 46.4448 27.4441 47.6039C27.485 47.6819 27.4366 47.8076 27.4098 47.9327C26.8452 48.0939 26.3005 48.2334 25.6874 48.3821C24.6087 48.5817 23.5984 48.7722 22.5881 48.9626Z" fill="#306679"/>
<path d="M26.3508 43.4875C26.3006 43.4032 26.2761 43.3344 26.272 43.2088C26.3003 42.9739 26.3146 42.7957 26.315 42.6175C26.3213 39.9462 26.3258 37.2749 26.3715 34.6041C27.0319 34.6054 27.6515 34.6061 28.2714 34.6487C28.2717 38.4427 28.2738 42.1949 28.2645 45.947C28.2641 46.1091 28.1577 46.271 28.0723 46.4338C28.0253 46.4371 28.0066 46.4396 27.9879 46.4421C27.4508 45.4624 26.9136 44.4827 26.3508 43.4875Z" fill="#34445B"/>
<path d="M22.2599 55.8926C22.4176 55.7944 22.5662 55.6847 22.7264 55.6636C23.6893 55.5366 24.6549 55.43 25.6568 55.3094C25.8099 55.3018 25.9336 55.2748 26.0396 55.3071C26.1993 55.3558 26.3467 55.4458 26.4992 55.5183C26.399 55.6532 26.2988 55.7882 26.1383 55.9285C26.0415 55.9405 26.0049 55.9471 25.9683 55.9538C25.895 55.956 25.8217 55.9583 25.698 55.9659C25.6234 55.9758 25.6065 55.9896 25.5971 56.0126C25.5971 56.0126 25.6051 56.012 25.5624 56.0074C25.2435 56.0639 24.9674 56.1249 24.6912 56.1859C23.9568 56.2237 23.2223 56.2615 22.4484 56.2987C22.358 56.1728 22.3071 56.0474 22.2599 55.8926Z" fill="#D3140A"/>
<path d="M28.2711 34.6068C27.6515 34.6061 27.0318 34.6054 26.3427 34.6288C26.2626 34.8306 26.2429 35.0082 26.2426 35.1859C26.2373 37.8288 26.2346 40.4718 26.2313 43.1147C26.2222 42.3878 26.2055 41.6609 26.2057 40.9341C26.2062 38.7948 26.2135 36.6555 26.2281 34.4825C26.9605 34.4489 27.683 34.4489 28.4609 34.4489C28.4609 34.6523 28.4609 34.8109 28.4609 34.9694C28.4607 38.8649 28.4607 42.7604 28.4595 46.6559C28.4595 46.7741 28.4463 46.8922 28.4393 47.0104C28.3786 46.9986 28.318 46.9868 28.2823 46.9172C28.325 46.7138 28.3583 46.5682 28.3584 46.4226C28.361 42.6233 28.361 38.8239 28.3561 35.0246C28.3559 34.8853 28.3007 34.7461 28.2711 34.6068Z" fill="#323E3E"/>
<path d="M28.2714 34.6487C28.3007 34.7461 28.3559 34.8853 28.3561 35.0246C28.3611 38.8239 28.361 42.6233 28.3584 46.4226C28.3583 46.5682 28.325 46.7138 28.2791 46.8891C28.2509 46.9189 28.2496 46.9098 28.2501 46.8809C28.2261 46.832 28.2015 46.8119 28.1769 46.7918C28.1769 46.7918 28.1609 46.7748 28.1624 46.7325C28.1377 46.6589 28.1116 46.6277 28.0854 46.5965C28.0854 46.5965 28.0777 46.5844 28.0861 46.5437C28.0966 46.4796 28.0986 46.4562 28.1006 46.4329C28.1577 46.2709 28.2641 46.1091 28.2645 45.947C28.2739 42.1949 28.2717 38.4427 28.2714 34.6487Z" fill="#27486D"/>
<path d="M28.2925 33.4386C28.2695 29.6769 28.2703 25.917 28.2733 22.1571C28.2734 21.9947 28.2939 21.8322 28.3318 21.6846C28.3619 25.5866 28.3652 29.4739 28.3685 33.3613C28.3513 33.3876 28.334 33.414 28.2925 33.4386Z" fill="#25476E"/>
<path d="M28.4002 33.3388C28.3652 29.4739 28.3619 25.5866 28.3571 21.6575C28.3555 21.6156 28.3931 21.6126 28.4119 21.6111C28.4398 21.7279 28.4569 21.8462 28.4569 21.9645C28.4584 25.6452 28.4585 29.326 28.4573 33.0067C28.4573 33.1099 28.4408 33.2132 28.4002 33.3388Z" fill="#273537"/>
<path d="M29.3372 39.4439C29.3372 36.6446 29.3372 33.8901 29.3372 31.1355C29.3571 31.1355 29.3771 31.1355 29.397 31.1354C29.397 34.6435 29.397 38.1515 29.397 41.6595C29.3771 41.6601 29.3572 41.6607 29.3372 41.6613C29.3372 40.9371 29.3372 40.2129 29.3372 39.4439Z" fill="#FDB522"/>
<path d="M26.2399 25.6899C26.2716 25.8066 26.3126 25.9644 26.3129 26.1223C26.3174 28.5331 26.3166 30.9438 26.315 33.3964C26.2834 33.3352 26.2283 33.2323 26.2282 33.1294C26.2253 30.6633 26.2283 28.1971 26.2399 25.6899Z" fill="#252515"/>
<path d="M24.7313 56.1899C24.9674 56.1249 25.2436 56.0639 25.5588 56.0059C25.5995 56.0251 25.6011 56.0415 25.6037 56.0825C25.3269 56.1361 25.0491 56.165 24.7313 56.1899Z" fill="#F19F4B"/>
<path d="M25.982 55.9698C26.0049 55.9473 26.0415 55.9405 26.1057 55.9385C26.0875 55.9573 26.0417 55.9715 25.982 55.9698Z" fill="#F19F4B"/>
<path d="M25.612 56.0124C25.6065 55.9898 25.6234 55.9758 25.663 55.9777C25.664 55.9986 25.6468 56.0078 25.612 56.0124Z" fill="#F19F4B"/>
<path d="M28.1801 46.8162C28.2015 46.8119 28.2261 46.832 28.2525 46.8771C28.2307 46.8816 28.207 46.8611 28.1801 46.8162Z" fill="#323E3E"/>
<path d="M28.0883 46.6278C28.1116 46.6277 28.1377 46.6589 28.1665 46.7215C28.1431 46.7217 28.1172 46.6904 28.0883 46.6278Z" fill="#323E3E"/>
<path d="M28.0723 46.4338C28.0986 46.4563 28.0966 46.4796 28.0905 46.5379C28.0582 46.548 28.0301 46.5232 27.9949 46.4702C28.0066 46.4396 28.0253 46.4371 28.0723 46.4338Z" fill="#323E3E"/>
<path d="M18.2128 44.6903C18.2867 44.7162 18.3281 44.7309 18.3518 44.7393C18.3106 44.9066 18.235 45.0731 18.2337 45.2403C18.2239 46.5035 18.2287 47.7669 18.2287 49.0943C18.2283 49.1734 18.2279 49.1884 18.1862 49.2077C17.3993 49.1918 16.6538 49.1715 15.9083 49.1513C15.844 49.1453 15.7798 49.1393 15.6474 49.1257C15.1292 49.0706 14.6791 49.0231 14.2289 48.9757C14.1896 48.9689 14.1502 48.9621 14.0466 48.9453C13.3537 48.8322 12.7251 48.7291 12.0964 48.626C12.0559 48.617 12.0154 48.608 11.9131 48.5829C11.3976 48.4662 10.9439 48.3655 10.4902 48.2649C10.4512 48.2549 10.4122 48.245 10.3165 48.2145C9.98324 48.1154 9.70045 48.0532 9.43293 47.9505C9.32002 47.9072 9.23928 47.7787 9.14392 47.689C9.76602 46.544 10.3857 45.3977 11.0132 44.2558C11.0948 44.1072 11.2168 43.9811 11.3504 43.8376C11.7563 43.9255 12.1295 44.0325 12.5083 44.1119C12.9122 44.1966 13.3228 44.2485 13.7281 44.3276C14.0126 44.3831 14.2901 44.4996 14.5757 44.5203C15.4401 44.5828 16.3068 44.6119 17.2227 44.6952C17.5323 44.7291 17.7918 44.722 18.0513 44.7148C18.0943 44.7029 18.1374 44.691 18.2128 44.6903Z" fill="#34445B"/>
<path d="M10.3224 43.3494C9.98562 44.0056 9.65257 44.6639 9.31093 45.3175C9.05679 45.8038 8.79152 46.2841 8.47594 46.7637C8.40052 46.6011 8.36306 46.4418 8.36283 46.2825C8.35926 43.7913 8.36051 41.3002 8.36062 38.809C8.36067 37.541 8.36946 36.2729 8.35444 35.0051C8.35071 34.6904 8.45077 34.5866 8.75999 34.5999C9.27707 34.6221 9.79568 34.6083 10.315 34.6512C10.3184 37.5783 10.3204 40.4638 10.3224 43.3494Z" fill="#34445B"/>
<path d="M10.813 55.2999C11.8744 55.4159 12.898 55.5301 13.919 55.6647C14.0778 55.6857 14.2246 55.7998 14.3939 55.899C14.3682 56.244 14.1742 56.3371 13.8824 56.2993C13.6081 56.2638 13.3327 56.2378 13.0202 56.2121C12.1483 56.1221 11.3138 56.0277 10.4212 55.9213C10.3177 55.891 10.2724 55.8726 10.227 55.8542C10.227 55.8542 10.2055 55.833 10.1917 55.8274C10.1003 55.3092 10.1186 55.2932 10.813 55.2999Z" fill="#D4150A"/>
<path d="M10.3137 34.6096C9.7957 34.6083 9.2771 34.6221 8.76001 34.5999C8.45079 34.5866 8.35073 34.6904 8.35446 35.0052C8.36948 36.273 8.36069 37.541 8.36064 38.809C8.36054 41.3002 8.35928 43.7914 8.36285 46.2825C8.36308 46.4419 8.40054 46.6012 8.4535 46.7833C8.43232 46.9175 8.37832 47.0289 8.29851 47.1124C8.2722 43.1091 8.27235 39.1336 8.26929 35.1581C8.26914 34.9668 8.2406 34.7755 8.22528 34.5842C8.24542 34.5527 8.26555 34.5212 8.3535 34.4964C9.05577 34.493 9.69022 34.4828 10.3247 34.4727C10.3247 34.4727 10.3329 34.4819 10.3265 34.5168C10.318 34.571 10.3158 34.5903 10.3137 34.6096Z" fill="#283247"/>
<path d="M8.20993 34.6188C8.24059 34.7755 8.26913 34.9668 8.26928 35.1581C8.27235 39.1336 8.27219 43.1091 8.27217 47.1286C8.26978 47.1875 8.27288 47.2107 8.26502 47.2154C8.24721 47.2262 8.22401 47.2279 8.203 47.2332C8.1954 47.1459 8.18117 47.0585 8.18115 46.9711C8.18016 42.9097 8.18037 38.8483 8.18111 34.7869C8.18111 34.7424 8.1899 34.6979 8.20993 34.6188Z" fill="#79745B"/>
<path d="M7.85718 21.7207C7.89649 21.6747 7.96668 21.6462 8.06628 21.6608C8.09467 25.5861 8.09367 29.4683 8.09267 33.3505C8.06341 33.1807 8.00885 33.011 8.00862 32.8413C8.00371 29.3217 8.00671 25.8022 8.00004 22.2826C7.9997 22.1011 7.92705 21.9197 7.85718 21.7207Z" fill="#F9B42E"/>
<path d="M8.10292 33.3702C8.09369 29.4683 8.09469 25.5861 8.09653 21.6627C8.09736 21.6215 8.1363 21.6161 8.15579 21.6138C8.18142 21.8597 8.18756 22.1079 8.20603 22.3962C8.21706 22.5533 8.21576 22.6704 8.20378 22.8637C8.20123 23.3379 8.20936 23.7359 8.2175 24.1339C8.21682 24.1689 8.21615 24.2039 8.20433 24.3038C8.20135 24.5295 8.20952 24.6903 8.21768 24.8512C8.21697 24.886 8.21625 24.9208 8.20436 25.0204C8.20136 25.246 8.20953 25.4068 8.21771 25.5677C8.21653 26.5483 8.21536 27.5289 8.20368 28.5894C8.20135 28.8301 8.20952 28.9909 8.21769 29.1518C8.2166 30.4307 8.21551 31.7097 8.20402 33.0651C8.19085 33.2406 8.18807 33.3396 8.18529 33.4387C8.15546 33.4311 8.13141 33.4149 8.10292 33.3702Z" fill="#E5B455"/>
<path d="M10.5827 43.2966C10.5672 43.2969 10.5516 43.2971 10.5127 43.2985C10.4894 43.2997 10.4504 43.2969 10.4294 43.2739C10.4085 43.2509 10.4177 43.2094 10.4449 43.1837C10.4792 42.9951 10.4924 42.8323 10.4925 42.6695C10.4937 39.9488 10.4933 37.2281 10.4932 34.5074C10.4932 34.5074 10.4966 34.4662 10.4985 34.4456C10.5274 34.4366 10.5492 34.4546 10.5747 34.5402C10.5832 37.4999 10.583 40.3982 10.5827 43.2966Z" fill="#F7DE59"/>
<path d="M10.4177 43.2094C10.4177 43.2094 10.4085 43.2508 10.41 43.272C10.398 43.3046 10.3845 43.3162 10.3467 43.3385C10.3204 40.4638 10.3184 37.5783 10.315 34.6512C10.3158 34.5903 10.318 34.571 10.3254 34.5228C10.3456 34.4909 10.3605 34.4877 10.3932 34.5361C10.4132 37.4616 10.4155 40.3355 10.4177 43.2094Z" fill="#1D3146"/>
<path d="M10.4449 43.1837C10.4154 40.3355 10.4132 37.4616 10.4145 34.5446C10.4181 34.5015 10.456 34.5003 10.4746 34.5038C10.4933 37.2281 10.4937 39.9488 10.4925 42.6695C10.4925 42.8323 10.4792 42.9952 10.4449 43.1837Z" fill="#79745B"/>
<path d="M10.2781 33.4393C10.3195 33.4315 10.3603 33.4426 10.4024 33.4414C10.4444 33.4402 10.4877 33.4354 10.4877 33.4354C10.4877 33.4354 10.501 33.4374 10.5073 33.4402C10.5067 33.4814 10.4997 33.5198 10.4891 33.5873C9.88117 33.6169 9.27689 33.623 8.67286 33.6135C8.55083 33.6115 8.42971 33.5503 8.28829 33.4894C8.28337 33.4576 8.29834 33.4529 8.3352 33.4396C8.98367 33.4365 9.61025 33.4418 10.2781 33.4393Z" fill="#E5B455"/>
<path d="M9.12245 47.7078C9.23927 47.7787 9.32001 47.9072 9.43292 47.9505C9.70044 48.0532 9.98323 48.1154 10.2861 48.2136C9.91891 48.1487 9.52542 48.0641 9.10162 47.966C9.08121 47.8772 9.0911 47.8019 9.12245 47.7078Z" fill="#D2C867"/>
<path d="M10.292 34.456C9.6902 34.4831 9.05575 34.4934 8.38046 34.4873C8.97956 34.4603 9.61949 34.4497 10.292 34.456Z" fill="#79745B"/>
<path d="M8.20784 33.4418C8.18807 33.3396 8.19085 33.2406 8.20568 33.1062C8.23653 33.1719 8.25533 33.2728 8.27471 33.4055C8.26032 33.4398 8.24536 33.4423 8.20784 33.4418Z" fill="#7C705B"/>
<path d="M21.6953 55.9648C21.7344 55.93 21.7733 55.9296 21.8414 55.9298C21.923 56.0155 21.9755 56.1006 22.0304 56.1896C21.7678 56.2662 21.7678 56.2662 21.6953 55.9648Z" fill="#F0B64A"/>
<path d="M10.2303 55.8788C10.2724 55.8726 10.3177 55.8912 10.3835 55.924C10.3471 55.9267 10.2904 55.9152 10.2303 55.8788Z" fill="#F2B440"/>
<path d="M21.4323 31.5618C20.4107 32.2306 19.4404 32.976 18.1024 32.913C16.7877 32.8511 15.4678 32.9003 14.1502 32.8991C13.4296 32.8984 13.1808 32.6395 13.3678 31.9263C13.5665 31.1683 13.8722 30.4387 14.1327 29.6972C14.172 29.5852 14.2194 29.4762 14.2891 29.3862C14.3161 29.7634 14.3162 30.1202 14.3183 30.4771C14.3226 31.2001 14.6832 31.5626 15.4132 31.5633C17.4196 31.5652 19.4259 31.5626 21.4323 31.5618Z" fill="#C3B046"/>
<path d="M15.1222 28.5207C15.2168 28.4864 15.3109 28.4235 15.406 28.4219C17.0858 28.3942 18.7671 28.3223 20.4452 28.3681C21.812 28.4054 22.3124 28.5093 22.2122 30.1629C22.1997 30.37 22.1915 30.5774 22.1242 30.8184C21.7952 30.8787 21.5235 30.9054 21.2488 30.8917C21.1932 29.6325 21.3474 29.723 20.0624 29.6947C18.4749 29.6597 16.8852 29.7285 15.2974 29.7145C15.2396 29.2913 15.1809 28.906 15.1222 28.5207Z" fill="#FEFEE3"/>
<path d="M15.0878 28.5164C15.1809 28.906 15.2396 29.2913 15.2967 29.7578C15.2948 30.0177 15.3164 30.1997 15.2899 30.3743C15.2207 30.8298 15.3955 30.9496 15.8464 30.9428C17.6478 30.9156 19.4499 30.9319 21.2517 30.932C21.5235 30.9054 21.7953 30.8787 22.1031 30.8484C22.0851 31.2303 21.8027 31.4027 21.4624 31.5555C19.426 31.5626 17.4196 31.5652 15.4132 31.5632C14.6833 31.5625 14.3226 31.2 14.3183 30.477C14.3162 30.1202 14.3161 29.7633 14.3119 29.365C14.4483 28.9518 14.528 28.5242 15.0878 28.5164Z" fill="#F3DDAB"/>
<path d="M10.6092 43.2703C10.583 40.3982 10.5832 37.4998 10.5838 34.5597C10.6134 34.6278 10.6679 34.7376 10.6681 34.8475C10.6728 37.5739 10.6721 40.3002 10.6704 43.0266C10.6703 43.0991 10.6478 43.1716 10.6092 43.2703Z" fill="#FFDD2B"/>
<path d="M26.228 43.1397C26.2346 40.4717 26.2373 37.8288 26.2426 35.1859C26.2429 35.0082 26.2626 34.8306 26.302 34.6282C26.3258 37.2749 26.3213 39.9462 26.315 42.6175C26.3146 42.7957 26.3003 42.9739 26.2691 43.1813C26.2388 43.1953 26.2318 43.1801 26.228 43.1397Z" fill="#242314"/>
<path d="M10.6107 33.3235C10.5838 30.7802 10.5832 28.2108 10.5821 25.5995C10.6117 25.6176 10.6681 25.6776 10.6682 25.7376C10.6724 28.1997 10.6718 30.6618 10.67 33.124C10.67 33.1818 10.6485 33.2396 10.6107 33.3235Z" fill="#FFE02F"/>
<path d="M18.229 44.5498C17.8474 44.5498 17.5097 44.5498 17.1721 44.5498C17.1723 44.5288 17.1725 44.5078 17.1728 44.4868C17.9884 44.4868 18.804 44.4868 19.6197 44.4868C19.6207 44.5078 19.6218 44.5288 19.6229 44.5498C19.1729 44.5498 18.723 44.5498 18.229 44.5498Z" fill="#FFDD28"/>
<path d="M18.0147 44.6965C17.7918 44.7223 17.5323 44.7296 17.2631 44.7052C17.495 44.6751 17.7366 44.6765 18.0147 44.6965Z" fill="#306679"/>
<path d="M15.9227 9.04357C16.1865 9.47075 16.4204 9.88276 16.6826 10.3448C16.8073 10.0532 16.9345 9.77757 17.044 9.49497C17.2511 8.96061 17.4387 8.89346 17.9591 9.21589C17.724 9.79841 17.4643 10.3798 17.2604 10.9805C17.1879 11.1941 17.1908 11.4753 17.2638 11.6894C17.4684 12.2892 17.7274 12.8702 17.9668 13.4632C17.3027 13.6406 17.2375 13.6118 17.0265 13.0802C16.9172 12.8048 16.8078 12.5295 16.6659 12.172C16.5315 12.4951 16.4228 12.7469 16.3217 13.0017C16.0794 13.6121 16.0808 13.6127 15.3391 13.484C15.5551 12.9551 15.7454 12.4297 15.983 11.9269C16.1665 11.5385 16.2227 11.194 16.0025 10.7913C15.797 10.4155 15.6687 9.99675 15.5078 9.59634C15.2898 9.05365 15.3158 9.01593 15.9227 9.04357Z" fill="#6A6450"/>
<path d="M20.2242 13.4177C19.9364 13.4801 19.6648 13.5266 19.3936 13.5237C19.33 13.5231 19.2321 13.3633 19.2109 13.2636C18.9551 12.0564 18.7118 10.8466 18.4619 9.63823C18.4328 9.49781 18.3836 9.36163 18.3438 9.22349C18.9407 9.04766 19.1047 9.11231 19.1857 9.67107C19.2537 10.1404 19.5652 10.0158 19.842 10.0452C20.1594 10.079 20.2609 9.9141 20.2865 9.63371C20.3 9.48725 20.347 9.34391 20.3848 9.17197C20.6175 9.17197 20.8468 9.17197 21.111 9.17197C20.8183 10.5882 20.5294 11.9859 20.2242 13.4177ZM19.5221 11.3962C19.5357 11.5142 19.5305 11.6389 19.5686 11.7483C19.6023 11.845 19.6841 11.9247 19.7447 12.0119C19.7992 11.9214 19.8779 11.8372 19.9033 11.739C19.96 11.5191 19.995 11.293 20.0293 11.068C20.0519 10.9196 20.0579 10.7686 20.0705 10.6275C19.8105 10.6275 19.6125 10.6275 19.3925 10.6275C19.4329 10.8837 19.4674 11.1031 19.5221 11.3962Z" fill="#696455"/>
<path d="M18.9386 4.31252C19.9704 4.37391 20.9581 4.43151 21.9452 4.49767C22.5472 4.53802 22.5703 4.5809 22.3587 5.21065C19.6809 4.89248 16.9891 4.87602 14.2583 5.22054C14.239 4.98732 14.2235 4.80117 14.2049 4.57573C15.776 4.30046 17.3349 4.30383 18.9386 4.31252Z" fill="#6A7A7C"/>
<path d="M23.2749 12.9552C23.2749 12.9552 23.2685 12.9907 23.2313 13.0153C23.085 13.151 22.9823 13.3494 22.8657 13.3581C22.3829 13.3943 21.8955 13.3841 21.411 13.3626C21.3259 13.3588 21.2467 13.2191 21.1648 13.1422C21.2506 13.0695 21.3275 12.9799 21.4245 12.9287C21.5318 12.8721 21.6574 12.8508 21.7789 12.7934C21.7829 12.7727 21.7975 12.7331 21.8214 12.7066C21.8557 11.5088 21.8662 10.3376 21.9153 9.16443C22.0943 9.17161 22.2347 9.1807 22.4052 9.19173C22.4052 10.2524 22.4015 11.2644 22.4091 12.2763C22.4102 12.4308 22.4633 12.5849 22.5052 12.772C22.7703 12.8549 23.0226 12.9051 23.2749 12.9552Z" fill="#676358"/>
<path d="M14.0413 9.16451C14.0413 9.16451 14.0529 9.12508 14.0742 9.10136C14.0955 9.07764 14.1362 9.07927 14.1412 9.1063C14.2925 9.14365 14.4388 9.15398 14.5843 9.20592C14.5831 10.4248 14.5919 11.6023 14.5733 12.7793C14.5704 12.9677 14.4455 13.1541 14.3722 13.3543C14.4126 13.3567 14.5408 13.3643 14.6694 13.3971C14.6698 13.4558 14.6698 13.4893 14.6698 13.5228C14.4803 13.5172 14.2907 13.5116 14.0789 13.4405C14.0515 11.9715 14.0464 10.568 14.0413 9.16451Z" fill="#6D6553"/>
<path d="M18.358 17.2499C17.7398 17.3011 17.159 17.3367 16.5799 17.3913C16.0624 17.44 15.5441 17.4916 15.0312 17.5739C14.1073 17.7223 13.1872 17.8945 12.2292 18.0591C12.5853 17.9329 12.9696 17.7567 13.3721 17.6852C14.4368 17.4959 15.5095 17.352 16.6475 17.1649C18.0191 17.1676 19.3222 17.1955 20.6254 17.2233C21.378 17.3432 22.1398 17.4226 22.8809 17.5931C23.8172 17.8084 24.7367 18.098 25.6771 18.3866C24.2749 18.1018 22.868 17.7323 21.4401 17.4884C20.4404 17.3176 19.4118 17.3184 18.358 17.2499Z" fill="#DDD064"/>
<path d="M21.7975 12.7332C21.7975 12.7332 21.7829 12.7727 21.7396 12.7976C21.4969 12.8224 21.2975 12.8224 21.0817 12.8224C21.0817 13.0997 21.0817 13.3176 21.0584 13.5394C21.0194 13.5435 21.0037 13.5437 20.988 13.544C20.768 12.9414 20.8568 12.8245 21.6962 12.6849C21.6962 12.1354 21.6962 11.5735 21.6962 11.0116C21.6963 10.4442 21.7106 9.87631 21.6917 9.30957C21.6786 8.91425 21.9402 8.98929 22.1691 8.97729C22.4159 8.96437 22.5974 8.98592 22.5916 9.32187C22.5756 10.2473 22.5962 11.1734 22.5813 12.0989C22.5749 12.4958 22.5789 12.8349 23.1246 12.753C23.1677 12.7466 23.2249 12.8361 23.2752 12.9181C23.0226 12.9051 22.7703 12.855 22.5072 12.7307C22.4965 11.4699 22.4965 10.2834 22.4965 9.07975C22.2555 9.07975 22.0656 9.07975 21.8434 9.0988C21.8065 10.323 21.802 11.5281 21.7975 12.7332Z" fill="#D0BE65"/>
<path d="M21.0817 13.5356C21.0817 13.3176 21.0817 13.0997 21.0817 12.8224C21.2975 12.8224 21.4969 12.8224 21.7356 12.8183C21.6573 12.8509 21.5318 12.8722 21.4245 12.9288C21.3275 12.9799 21.2505 13.0696 21.1648 13.1422C21.2467 13.2192 21.3259 13.3589 21.411 13.3626C21.8955 13.3842 22.3829 13.3944 22.8657 13.3582C22.9823 13.3494 23.085 13.1511 23.2234 13.0315C23.2617 13.1598 23.2708 13.2964 23.2432 13.4799C22.4983 13.5297 21.79 13.5326 21.0817 13.5356Z" fill="#6D6534"/>
<path d="M14.1362 9.07923C14.1362 9.07923 14.0955 9.0776 14.0754 9.08079C14.1874 8.73319 14.4729 8.90619 14.6862 8.92762C14.779 8.93694 14.9264 9.12212 14.9269 9.22798C14.933 10.6209 14.9172 12.0139 14.8796 13.393C14.8511 12.0961 14.8527 10.8131 14.8445 9.53022C14.8435 9.37675 14.7894 9.22363 14.7212 9.06434C14.5005 9.06531 14.3184 9.07227 14.1362 9.07923Z" fill="#F6DB59"/>
<path d="M14.1413 9.10627C14.3184 9.07228 14.5005 9.06531 14.7219 9.10642C14.7687 10.5974 14.7762 12.0402 14.7837 13.4831C14.7671 13.5096 14.7435 13.5259 14.6914 13.5274C14.6698 13.4893 14.6698 13.4558 14.6712 13.3551C14.6724 12.0676 14.6754 10.8473 14.6684 9.62699C14.6675 9.47259 14.6141 9.3185 14.5851 9.16427C14.4388 9.15395 14.2925 9.14363 14.1413 9.10627Z" fill="#58553A"/>
<path d="M20.6178 17.1878C19.3223 17.1955 18.0191 17.1676 16.6749 17.1408C16.675 17.1094 16.716 17.0491 16.7572 17.0489C17.9528 17.0441 19.1485 17.0429 20.3441 17.05C20.433 17.0505 20.5215 17.1167 20.6178 17.1878Z" fill="#FEDE2D"/>
<path d="M14.8026 13.4792C14.7762 12.0402 14.7687 10.5974 14.7605 9.11243C14.7894 9.22365 14.8436 9.37677 14.8445 9.53024C14.8527 10.8131 14.8511 12.0961 14.8553 13.4211C14.8581 13.4632 14.8215 13.4754 14.8026 13.4792Z" fill="#9E8F37"/>
<path d="M14.0167 9.19159C14.0465 10.568 14.0516 11.9715 14.0534 13.4164C14.0221 13.4082 13.9696 13.3584 13.9698 13.3088C13.9739 11.9454 13.9834 10.5821 14.0167 9.19159Z" fill="#F6DB59"/>
<path d="M21.0584 13.5393C21.79 13.5326 22.4983 13.5297 23.2466 13.5143C23.2205 13.5475 23.1542 13.6327 23.0881 13.6325C22.4038 13.6302 21.7196 13.6141 21.0117 13.5729C21.0037 13.5437 21.0194 13.5434 21.0584 13.5393Z" fill="#F5DD61"/>
<path d="M26.6637 18.7398C26.532 18.7233 26.3917 18.6794 26.2316 18.6157C26.3595 18.6346 26.5073 18.6736 26.6637 18.7398Z" fill="#DDD064"/>
<path d="M27.178 18.9297C27.0868 18.9285 26.9913 18.8991 26.8743 18.8484C26.9597 18.8519 27.0667 18.8766 27.178 18.9297Z" fill="#DDD064"/>
<path d="M26.1969 18.5671C26.1327 18.5779 26.0587 18.5583 25.9669 18.5154C26.0285 18.5069 26.1079 18.5218 26.1969 18.5671Z" fill="#DDD064"/>
<path d="M25.9368 18.4677C25.8953 18.485 25.8368 18.4739 25.7554 18.4428C25.7949 18.4283 25.8575 18.4338 25.9368 18.4677Z" fill="#DDD064"/>
<path d="M12.3522 5.22719C12.1191 5.22713 11.9275 5.22713 11.7256 5.22713C11.5819 4.91198 11.6528 4.76498 11.9971 4.78503C12.13 4.79277 12.2702 4.76079 12.3951 4.79347C12.5386 4.831 12.7717 4.90249 12.7865 4.99005C12.8417 5.31671 12.5613 5.20022 12.3522 5.22719Z" fill="#B7CBD6"/>
<path d="M11.1853 5.57762C11.3332 5.65523 11.4404 5.73277 11.5476 5.8103C11.446 5.87865 11.3509 5.98889 11.2413 6.00621C11.0422 6.03769 10.8304 6.03716 10.632 6.00262C10.544 5.98729 10.4758 5.85668 10.3985 5.7784C10.4722 5.71154 10.5384 5.60155 10.6212 5.58685C10.7909 5.55669 10.9696 5.57764 11.1853 5.57762Z" fill="#B9CCD5"/>
<path d="M25.3022 6.0119C25.2131 5.90398 25.1623 5.7985 25.1115 5.69302C25.1956 5.65427 25.2778 5.58846 25.3642 5.58207C25.583 5.56589 25.8064 5.55643 26.0225 5.5853C26.1192 5.59822 26.2029 5.70953 26.2925 5.77619C26.1952 5.8555 26.1062 5.9853 25.9987 6.00344C25.7848 6.03955 25.5606 6.01425 25.3022 6.0119Z" fill="#B7CDD5"/>
<path d="M24.5315 5.22736C24.342 5.22673 24.1875 5.25184 24.0485 5.21597C23.9664 5.1948 23.8548 5.07636 23.8557 5.00291C23.8566 4.93002 23.9732 4.8116 24.0545 4.79644C24.2262 4.7644 24.4131 4.76016 24.5838 4.79482C24.7268 4.82386 24.9594 4.90878 24.9722 4.99589C25.0203 5.32269 24.7389 5.19754 24.5315 5.22736Z" fill="#B8CBD3"/>
<path d="M8.23542 24.1017C8.20935 23.7359 8.20122 23.3379 8.20537 22.8989C8.22956 23.2618 8.24145 23.6656 8.23542 24.1017Z" fill="#7C705B"/>
<path d="M8.2346 24.8237C8.20952 24.6904 8.20135 24.5296 8.20544 24.33C8.22896 24.4596 8.24024 24.628 8.2346 24.8237Z" fill="#7C705B"/>
<path d="M8.23461 29.1243C8.20952 28.9909 8.20136 28.8301 8.20544 28.6306C8.22896 28.7602 8.24024 28.9285 8.23461 29.1243Z" fill="#7C705B"/>
<path d="M8.23457 25.5402C8.20951 25.4069 8.20133 25.2461 8.2054 25.0465C8.22891 25.1761 8.24019 25.3444 8.23457 25.5402Z" fill="#7C705B"/>
<path d="M10.4896 33.394C10.4877 33.4354 10.4444 33.4402 10.423 33.4366C10.4085 31.0051 10.4154 28.5773 10.4413 26.1176C10.4717 26.5899 10.4919 27.094 10.4927 27.5982C10.4957 29.5163 10.4924 31.4344 10.4896 33.394Z" fill="#757A5C"/>
<path d="M15.9223 49.1828C16.6538 49.1715 17.3993 49.1918 18.2274 49.214C19.2742 49.1618 20.2384 49.1076 21.2027 49.0535C21.5788 49.0239 21.955 48.9942 22.3677 48.9722C22.1071 49.0529 21.8136 49.1592 21.5123 49.1917C20.9481 49.2526 20.3794 49.2707 19.7435 49.3082C19.6363 49.3118 19.5982 49.3139 19.5337 49.3128C19.4624 49.3341 19.4175 49.3584 19.3341 49.382C19.0921 49.381 18.8885 49.3809 18.685 49.3807C17.9675 49.3521 17.2499 49.3275 16.5327 49.2923C16.3331 49.2825 16.1351 49.2413 15.9223 49.1828Z" fill="#D2C867"/>
<path d="M22.6146 48.9833C23.5984 48.7721 24.6087 48.5817 25.6563 48.3953C25.1211 48.547 24.553 48.7164 23.9746 48.835C23.5368 48.9249 23.0861 48.95 22.6146 48.9833Z" fill="#D2C867"/>
<path d="M12.1069 48.6554C12.7251 48.729 13.3537 48.8322 14.0165 48.9472C13.5562 48.9104 13.061 48.8679 12.5677 48.809C12.4149 48.7907 12.2673 48.7275 12.1069 48.6554Z" fill="#D2C867"/>
<path d="M18.6421 49.3839C18.8885 49.3809 19.0921 49.381 19.3608 49.3833C19.4706 49.3622 19.5154 49.339 19.5601 49.3159C19.5982 49.3139 19.6362 49.3119 19.7026 49.3131C19.6575 49.3702 19.5848 49.4695 19.5107 49.4706C18.7315 49.4819 17.9521 49.4776 17.1714 49.387C17.6474 49.387 18.1233 49.387 18.6421 49.3839Z" fill="#FEDE2D"/>
<path d="M14.2497 49.001C14.6791 49.0231 15.1292 49.0706 15.6152 49.1285C15.1909 49.1015 14.7307 49.0639 14.2497 49.001Z" fill="#D2C867"/>
<path d="M10.5013 48.2938C10.9439 48.3655 11.3976 48.4661 11.8818 48.5826C11.4457 48.5066 10.9791 48.4147 10.5013 48.2938Z" fill="#D2C867"/>
<path d="M21.1583 49.0484C20.2384 49.1077 19.2742 49.1618 18.2688 49.2096C18.2279 49.1884 18.2282 49.1734 18.2296 49.1358C19.1918 49.09 20.1529 49.0666 21.1583 49.0484Z" fill="#445F4A"/>
<path d="M21.2489 30.8918C19.4499 30.9319 17.6478 30.9156 15.8464 30.9428C15.3955 30.9497 15.2207 30.8298 15.2899 30.3743C15.3164 30.1998 15.2948 30.0177 15.2958 29.7958C16.8852 29.7285 18.4749 29.6597 20.0624 29.6947C21.3474 29.723 21.1932 29.6325 21.2489 30.8918Z" fill="#E3C893"/>
<path d="M19.512 11.3593C19.4674 11.1031 19.4329 10.8837 19.3925 10.6275C19.6125 10.6275 19.8105 10.6275 20.0705 10.6275C20.0579 10.7686 20.0519 10.9196 20.0293 11.068C19.995 11.293 19.96 11.5191 19.9033 11.739C19.8779 11.8372 19.7992 11.9214 19.7447 12.0119C19.6841 11.9247 19.6023 11.845 19.5686 11.7483C19.5305 11.6389 19.5357 11.5142 19.512 11.3593Z" fill="#F5DB4A"/>
<path d="M21.8758 9.07971C22.0656 9.07971 22.2555 9.07971 22.4965 9.07971C22.4965 10.2833 22.4965 11.4699 22.4944 12.6978C22.4633 12.5849 22.4102 12.4308 22.4091 12.2763C22.4015 11.2644 22.4052 10.2524 22.4052 9.19174C22.2347 9.1807 22.0943 9.17162 21.9141 9.14276C21.8743 9.12298 21.8758 9.07971 21.8758 9.07971Z" fill="#58502A"/>
<path d="M21.8434 9.09878C21.8757 9.07973 21.8743 9.123 21.8755 9.14467C21.8661 10.3376 21.8557 11.5088 21.8214 12.7066C21.802 11.528 21.8065 10.3229 21.8434 9.09878Z" fill="#6E6325"/>
<path d="M14.5843 9.20593C14.6141 9.31854 14.6675 9.47263 14.6684 9.62703C14.6754 10.8473 14.6724 12.0676 14.6707 13.33C14.5408 13.3643 14.4127 13.3567 14.3723 13.3543C14.4455 13.1541 14.5704 12.9677 14.5734 12.7793C14.5919 11.6023 14.5832 10.4249 14.5843 9.20593Z" fill="#666467"/>
<path d="M19.5337 49.3128C19.5154 49.339 19.4706 49.3621 19.3992 49.384C19.4175 49.3584 19.4624 49.3341 19.5337 49.3128Z" fill="#FFDE3F"/>
</svg>
