<svg version="1.0" xmlns="http://www.w3.org/2000/svg"
 width="502.000000pt" height="497.000000pt" viewBox="0 0 502.000000 497.000000"
 preserveAspectRatio="xMidYMid meet">

<g transform="translate(0.000000,497.000000) scale(0.100000,-0.100000)"
fill="#7D55C7" stroke="none">
<path d="M2440 4539 c-450 -26 -899 -217 -1226 -522 -112 -105 -261 -279 -339
-397 -65 -97 -181 -326 -210 -415 -41 -123 -95 -363 -106 -464 -15 -144 -7
-487 15 -599 53 -286 154 -547 291 -758 73 -112 240 -309 338 -397 257 -234
535 -391 828 -471 183 -50 318 -67 524 -68 342 -1 608 58 894 197 505 246 764
589 738 978 -16 227 -124 433 -303 575 -144 114 -268 160 -455 169 -217 11
-373 -43 -559 -193 -113 -91 -158 -113 -248 -121 -133 -11 -249 29 -348 120
-106 97 -139 180 -132 337 3 88 7 105 40 171 69 140 193 234 327 248 143 14
260 -25 395 -134 88 -71 210 -131 304 -150 106 -22 281 -20 378 5 364 91 622
441 600 815 -14 247 -108 421 -333 615 -132 115 -227 178 -383 256 -232 116
-496 188 -735 200 -55 2 -116 6 -135 7 -19 2 -91 -1 -160 -4z m420 -174 c348
-47 615 -165 884 -393 205 -175 286 -329 286 -548 0 -183 -48 -310 -160 -428
-127 -134 -296 -206 -481 -206 -125 0 -185 13 -285 60 -113 55 -178 121 -312
322 -141 211 -243 338 -371 460 -163 157 -288 236 -474 300 -85 30 -102 32
-222 32 -76 1 -153 -5 -185 -13 -77 -19 -205 -80 -269 -129 -30 -23 -57 -39
-60 -36 -6 6 143 146 238 222 135 109 365 234 526 286 96 31 246 65 335 76
112 13 438 11 550 -5z"/>
</g>
</svg>
