<svg width="20" height="20" viewBox="0 0 20 20" fill="none" xmlns="http://www.w3.org/2000/svg">
<path fill-rule="evenodd" clip-rule="evenodd" d="M10 1.75C6.75862 1.75 4.24399 3.78002 3.81483 6.25H6C6.41421 6.25 6.75 6.58579 6.75 7V14C6.75 14.4142 6.41421 14.75 6 14.75H3C1.48122 14.75 0.25 13.5188 0.25 12V9C0.25 7.72836 1.11311 6.65832 2.28547 6.34374C2.66693 2.83959 6.0738 0.25 10 0.25C13.9262 0.25 17.3331 2.83959 17.7145 6.34375C18.8869 6.65832 19.75 7.72836 19.75 9V12C19.75 13.2752 18.8821 14.3477 17.7047 14.6589C17.3839 16.9704 15.3998 18.75 13 18.75H11.8546C11.5579 19.483 10.8393 20 10 20C8.8954 20 8 19.1046 8 18C8 16.8954 8.8954 16 10 16C10.8393 16 11.5579 16.517 11.8546 17.25H13C14.5368 17.25 15.8245 16.1834 16.1631 14.75H14C13.5858 14.75 13.25 14.4142 13.25 14V7C13.25 6.58579 13.5858 6.25 14 6.25H16.1852C15.756 3.78002 13.2414 1.75 10 1.75ZM3 7.75C2.30964 7.75 1.75 8.3096 1.75 9V12C1.75 12.6904 2.30964 13.25 3 13.25H5.25V7.75H3ZM18.25 9C18.25 8.3096 17.6904 7.75 17 7.75H14.75V13.25H17C17.6904 13.25 18.25 12.6904 18.25 12V9Z" fill="#7D7B77"/>
</svg>
