<svg width="25" height="25" viewBox="0 0 25 25" fill="none" xmlns="http://www.w3.org/2000/svg">
<path d="M12.8506 5.88446C13.2648 5.88446 13.6006 5.54866 13.6006 5.13446C13.6006 4.72026 13.2648 4.38446 12.8506 4.38446L6.85059 4.38446C5.88409 4.38446 5.10059 5.16796 5.10059 6.13446L5.10059 18.1345C5.10059 19.101 5.88409 19.8845 6.85059 19.8845H12.8506C13.2648 19.8845 13.6006 19.5487 13.6006 19.1345C13.6006 18.7203 13.2648 18.3845 12.8506 18.3845H6.85059C6.71249 18.3845 6.60059 18.2725 6.60059 18.1345L6.60059 6.13446C6.60059 5.99636 6.71249 5.88446 6.85059 5.88446L12.8506 5.88446Z" fill="black"/>
<path fill-rule="evenodd" clip-rule="evenodd" d="M10.3475 9.76929C9.65719 9.76929 9.09749 10.3289 9.09749 11.0193L9.09749 13.2598C9.09749 13.9502 9.65719 14.5098 10.3475 14.5098H14.9601C14.9666 14.5832 14.9735 14.6566 14.9806 14.73L15.0346 15.2859C15.117 16.134 16.0176 16.6419 16.7861 16.2737C18.4203 15.4905 19.8997 14.4187 21.1532 13.11L21.2524 13.0064C21.7166 12.5217 21.7166 11.7574 21.2524 11.2727L21.1532 11.1691C19.8997 9.86039 18.4203 8.78859 16.7861 8.00539C16.0177 7.63719 15.117 8.14509 15.0346 8.99319L14.9806 9.54909C14.9735 9.62249 14.9666 9.69589 14.9601 9.76929L10.3475 9.76929ZM15.6555 11.2693C15.9218 11.2693 16.1573 11.13 16.2905 10.9185C16.3554 10.8155 16.3959 10.6954 16.404 10.566C16.4222 10.2751 16.4453 9.98449 16.4736 9.69419L16.4892 9.53279C17.5253 10.0668 18.4874 10.7317 19.3522 11.5106C19.5766 11.7127 19.7944 11.9224 20.0052 12.1395C18.9817 13.1936 17.7941 14.0738 16.4892 14.7463L16.4736 14.5849C16.4453 14.2946 16.4222 14.004 16.404 13.7131C16.3794 13.3178 16.0516 13.0098 15.6555 13.0098L10.5975 13.0098L10.5975 11.2693L15.6555 11.2693Z" fill="black"/>
</svg>
