<svg width="49" height="31" viewBox="0 0 49 31" fill="none" xmlns="http://www.w3.org/2000/svg">
<path d="M48.8681 11.591C49.2363 10.6819 42.5 2.5 33.3615 0.68186L25.2711 13.6364C31.7014 15.3607 37 18.5 40.7777 24.5455C40.7777 24.5455 48.5 12.5 48.8681 11.591Z" fill="#282828"/>
<path d="M0.999954 11.591C-4.49419e-05 9.1819 10.8328 5.78646 14.4839 0C14.4839 0 31.8237 27.7727 32.6873 28.6364C33.551 29.5 31.5 31 30.6647 30C29.8295 29 20.5517 13.6364 20.5517 13.6364C17 19.5 12.5 19 7.74195 23.8636C7.74195 23.8636 1.99995 14 0.999954 11.591Z" fill="#282828"/>
<path d="M15.8323 28.6364C16.1647 27.7727 19.5305 23.2342 21.9001 19.7727C21.9001 19.7727 23.8965 20.1364 23.2485 21.8182C22.6005 23.5 18.7099 29.5 17.8549 30C17 30.5 15.5 29.5 15.8323 28.6364Z" fill="#282828"/>
</svg>
