<svg width="24" height="24" viewBox="0 0 24 24" fill="none" xmlns="http://www.w3.org/2000/svg">
<path d="M18.9558 2.04505C19.2486 2.33794 19.2486 2.81282 18.9558 3.10571L18.4053 3.65616C21.6943 7.48724 21.5243 13.2651 17.8951 16.8943C16.1821 18.6073 13.9905 19.5496 11.7508 19.7213V21.25H13.5008C13.915 21.25 14.2508 21.5858 14.2508 22C14.2508 22.4142 13.915 22.75 13.5008 22.75H8.50079C8.08658 22.75 7.75079 22.4142 7.75079 22C7.75079 21.5858 8.08658 21.25 8.50079 21.25H10.2508V19.7213C8.24452 19.5674 6.27673 18.7951 4.65695 17.4045L4.1065 17.955C3.81361 18.2478 3.33873 18.2478 3.04584 17.955C2.75295 17.6621 2.75295 17.1872 3.04584 16.8943L3.75295 16.1872C4.24838 15.6917 5.01825 15.7171 5.50056 16.1493C7.06253 17.5491 9.03001 18.2493 10.9978 18.25H11.0008H11.004C13.1143 18.2491 15.2244 17.4437 16.8344 15.8336C19.9473 12.7207 20.0526 7.73853 17.1501 4.49977C16.7179 4.01746 16.6925 3.24759 17.188 2.75216L17.8951 2.04505C18.188 1.75216 18.6629 1.75216 18.9558 2.04505Z" fill="#7D7B77"/>
<path fill-rule="evenodd" clip-rule="evenodd" d="M4.25 10C4.25 6.27208 7.27208 3.25 11 3.25C14.7279 3.25 17.75 6.27208 17.75 10C17.75 13.7279 14.7279 16.75 11 16.75C7.27208 16.75 4.25 13.7279 4.25 10ZM11 4.75C8.1005 4.75 5.75 7.1005 5.75 10C5.75 10.3348 5.78135 10.6623 5.84126 10.9798C6.25258 10.5312 6.84345 10.25 7.5 10.25C8.74264 10.25 9.75 11.2574 9.75 12.5C9.75 13.4223 9.19501 14.2151 8.40076 14.5624C9.16712 15 10.0544 15.25 11 15.25C13.5434 15.25 15.6643 13.4414 16.147 11.0402C15.4784 12.0694 14.3187 12.75 13 12.75C10.9289 12.75 9.25 11.0711 9.25 9C9.25 6.92893 10.9289 5.25 13 5.25C13.0865 5.25 13.1723 5.25293 13.2573 5.25869C12.5735 4.93256 11.8081 4.75 11 4.75ZM10.75 9C10.75 7.75736 11.7574 6.75 13 6.75C14.2426 6.75 15.25 7.75736 15.25 9C15.25 10.2426 14.2426 11.25 13 11.25C11.7574 11.25 10.75 10.2426 10.75 9ZM7.5 11.75C7.08579 11.75 6.75 12.0858 6.75 12.5C6.75 12.9142 7.08579 13.25 7.5 13.25C7.91421 13.25 8.25 12.9142 8.25 12.5C8.25 12.0858 7.91421 11.75 7.5 11.75Z" fill="#7D7B77"/>
</svg>
