<svg width="17" height="20" viewBox="0 0 17 20" fill="none" xmlns="http://www.w3.org/2000/svg">
<g id="Vector">
<path d="M5.15388 8.42963C5.15388 6.64956 6.65201 5.20654 8.49998 5.20654C10.348 5.20654 11.8461 6.64956 11.8461 8.42963C11.8461 10.2097 10.348 11.6527 8.49998 11.6527C6.65201 11.6527 5.15388 10.2097 5.15388 8.42963Z" fill="#014EA8"/>
<path fill-rule="evenodd" clip-rule="evenodd" d="M0.0302718 7.31632C0.384073 3.18189 3.97088 0 8.2777 0H8.72237C13.0292 0 16.616 3.18189 16.9697 7.31632C17.1602 9.54235 16.4464 11.7527 14.9785 13.4818L10.0438 19.295C9.2459 20.235 7.75416 20.235 6.95624 19.295L2.02144 13.4818C0.553633 11.7527 -0.160219 9.54235 0.0302718 7.31632ZM8.49998 3.71896C5.79906 3.71896 3.60953 5.828 3.60953 8.42963C3.60953 11.0313 5.79906 13.1403 8.49998 13.1403C11.201 13.1403 13.3904 11.0313 13.3904 8.42963C13.3904 5.828 11.201 3.71896 8.49998 3.71896Z" fill="#014EA8"/>
</g>
</svg>
