<svg width="27" height="27" viewBox="0 0 27 27" fill="none" xmlns="http://www.w3.org/2000/svg">
<g clip-path="url(#clip0_60_2258)">
<path d="M13.1185 0.0872093L1.02818 5.92396C0.953891 5.95981 0.891224 6.0159 0.847373 6.08576C0.803522 6.15563 0.780265 6.23645 0.780273 6.31894V20.681C0.780278 20.7635 0.80354 20.8443 0.847389 20.9142C0.891239 20.9841 0.953899 21.0402 1.02818 21.076L13.1185 26.9128C13.2375 26.9702 13.3678 27 13.4999 27C13.632 27 13.7623 26.9702 13.8813 26.9128L25.9716 21.076C26.0459 21.0402 26.1086 20.9841 26.1524 20.9142C26.1963 20.8443 26.2196 20.7635 26.2195 20.681V6.31894C26.2195 6.23645 26.1963 6.15564 26.1524 6.08577C26.1086 6.01591 26.0459 5.95982 25.9716 5.92396L13.8813 0.0872093C13.7623 0.0298106 13.632 0 13.4999 0C13.3678 0 13.2375 0.0298106 13.1185 0.0872093Z" fill="#FFE17D"/>
<path d="M0.853205 6.07883C0.805943 6.15001 0.780586 6.23348 0.780273 6.31893V20.681C0.780278 20.7635 0.80354 20.8443 0.847389 20.9142C0.891239 20.9841 0.953899 21.0401 1.02818 21.076L13.1185 26.9127C13.2375 26.9701 13.3678 26.9999 13.4999 26.9999V12.1841L0.853205 6.07883Z" fill="#FFC350"/>
<path d="M26.1467 6.07883C26.194 6.15001 26.2193 6.23348 26.2196 6.31893V20.681C26.2196 20.7635 26.1964 20.8443 26.1525 20.9142C26.1087 20.9841 26.046 21.0401 25.9717 21.076L13.8814 26.9127C13.7624 26.9701 13.6321 27 13.5 27V12.1841L26.1467 6.07883Z" fill="#FFD164"/>
<path d="M4.39853 19.9155C4.33266 19.9154 4.26766 19.9005 4.20837 19.8718L2.34173 18.9706C2.28985 18.9456 2.2434 18.9106 2.20505 18.8677C2.16669 18.8247 2.13719 18.7746 2.11821 18.7202C2.09924 18.6659 2.09117 18.6083 2.09447 18.5508C2.09777 18.4933 2.11237 18.437 2.13744 18.3851C2.24238 18.1671 2.50536 18.0763 2.72295 18.1808L4.58958 19.0821C4.64147 19.1071 4.68792 19.1421 4.72627 19.185C4.76462 19.228 4.79413 19.2781 4.8131 19.3325C4.83207 19.3869 4.84014 19.4444 4.83684 19.5019C4.83355 19.5594 4.81895 19.6157 4.79388 19.6676C4.71852 19.8242 4.56174 19.9155 4.39853 19.9155Z" fill="#FFE17D"/>
<path d="M6.11602 18.7972C6.05015 18.7971 5.98515 18.7822 5.92586 18.7535L2.34372 17.0243C2.12571 16.919 2.03406 16.6568 2.13942 16.4388C2.24436 16.2212 2.50777 16.13 2.72493 16.2345L6.30702 17.9637C6.52502 18.0691 6.61668 18.3312 6.51131 18.5492C6.43601 18.7059 6.27923 18.7972 6.11602 18.7972Z" fill="#FFF6D8"/>
<path d="M21.8608 8.14076L9.16969 2.0097L5.82422 3.63129L18.5439 9.77184L21.8608 8.14076Z" fill="#FF8087"/>
<path d="M18.5439 9.77183V14.5288C18.5439 14.6905 18.713 14.7966 18.8586 14.7263L21.613 13.3966C21.6873 13.3608 21.75 13.3047 21.7938 13.2348C21.8377 13.165 21.8609 13.0841 21.8609 13.0017V8.14081L18.5439 9.77183Z" fill="#E6646E"/>
</g>
<defs>
<clipPath id="clip0_60_2258">
<rect width="27" height="27" fill="white"/>
</clipPath>
</defs>
</svg>
