<svg width="90" height="90" viewBox="0 0 90 90" fill="none" xmlns="http://www.w3.org/2000/svg">
<g id="Frame">
<g id="Group">
<path id="Vector" d="M45.0002 90C63.6065 90 78.6898 86.7565 78.6898 82.7555C78.6898 78.7545 63.6065 75.5111 45.0002 75.5111C26.3939 75.5111 11.3105 78.7545 11.3105 82.7555C11.3105 86.7565 26.3939 90 45.0002 90Z" fill="url(#paint0_linear_60_2729)"/>
<path id="Vector_2" d="M78.6903 82.7555C78.6903 78.7546 63.607 75.5111 45.0006 75.5111C41.9053 75.5111 38.9087 75.6012 36.0615 75.7694L42.3677 85.0468C42.5374 85.2968 42.7417 85.5214 42.9744 85.7141L47.2439 89.9836C64.804 89.7353 78.6903 86.5945 78.6903 82.7555Z" fill="url(#paint1_linear_60_2729)"/>
<path id="Vector_3" d="M81.9254 36.9251C81.9254 16.5319 65.3937 0 45.0006 0C24.6962 0 8.28074 16.2429 8.07709 36.5464C7.92339 51.8808 17.1187 65.0839 30.3117 70.8102C32.519 71.7697 34.4086 73.3362 35.7607 75.3274L42.3674 85.0468C43.6308 86.9052 46.3698 86.9052 47.6332 85.0468L54.2397 75.3275C55.5884 73.3433 57.467 71.7731 59.6684 70.8192C72.7636 65.1446 81.9254 52.1058 81.9254 36.9251Z" fill="url(#paint2_linear_60_2729)"/>
<path id="Vector_4" d="M45.0001 84.6007C44.7862 84.6007 44.2497 84.5434 43.8888 84.0125L37.2823 74.2929C35.7287 72.0072 33.5715 70.2192 31.0441 69.1225C18.0678 63.4901 9.77495 50.7104 9.91683 36.5647C10.0104 27.2336 13.6961 18.4982 20.2951 11.9672C26.8933 5.43688 35.6679 1.84006 45.0001 1.84006H45.0002C64.3462 1.84006 80.0852 17.5793 80.0852 36.9252C80.0852 50.9224 71.7839 63.5638 58.9367 69.1309C56.4237 70.2199 54.2732 72.0049 52.7178 74.2932L46.1113 84.0127C45.7504 84.5434 45.2139 84.6007 45.0001 84.6007Z" fill="url(#paint3_linear_60_2729)"/>
<path id="Vector_5" d="M45.0009 60.1359C57.8198 60.1359 68.2117 49.744 68.2117 36.9251C68.2117 24.1061 57.8198 13.7142 45.0009 13.7142C32.1819 13.7142 21.79 24.1061 21.79 36.9251C21.79 49.744 32.1819 60.1359 45.0009 60.1359Z" fill="url(#paint4_linear_60_2729)"/>
<path id="Vector_6" d="M80.7704 46.1185L58.7183 24.0664C55.2877 20.4081 50.4115 18.1218 45.0006 18.1218C34.6158 18.1218 26.1973 26.5403 26.1973 36.9251C26.1973 42.336 28.4836 47.2122 32.1419 50.6428L55.3823 73.8833C56.5765 72.5772 58.0333 71.5278 59.6688 70.8192C70.0257 66.3311 77.921 57.2359 80.7704 46.1185Z" fill="url(#paint5_linear_60_2729)"/>
<path id="Vector_7" d="M45.0006 55.7284C55.3853 55.7284 63.8039 47.3098 63.8039 36.9251C63.8039 26.5403 55.3853 18.1218 45.0006 18.1218C34.6158 18.1218 26.1973 26.5403 26.1973 36.9251C26.1973 47.3098 34.6158 55.7284 45.0006 55.7284Z" fill="url(#paint6_linear_60_2729)"/>
</g>
</g>
<defs>
<linearGradient id="paint0_linear_60_2729" x1="44.2583" y1="79.6294" x2="48.4433" y2="97.2662" gradientUnits="userSpaceOnUse">
<stop stop-color="#FFDA45"/>
<stop offset="1" stop-color="#FFA425"/>
</linearGradient>
<linearGradient id="paint1_linear_60_2729" x1="62.4942" y1="86.1079" x2="51.3516" y2="71.8915" gradientUnits="userSpaceOnUse">
<stop stop-color="#FFDA45" stop-opacity="0"/>
<stop offset="1" stop-color="#B53759"/>
</linearGradient>
<linearGradient id="paint2_linear_60_2729" x1="22.7144" y1="14.6379" x2="96.3907" y2="88.3142" gradientUnits="userSpaceOnUse">
<stop stop-color="#FF7044"/>
<stop offset="1" stop-color="#F92814"/>
</linearGradient>
<linearGradient id="paint3_linear_60_2729" x1="37.0815" y1="29.0271" x2="11.1908" y2="3.13641" gradientUnits="userSpaceOnUse">
<stop stop-color="#FF7044" stop-opacity="0"/>
<stop offset="1" stop-color="#FFA425"/>
</linearGradient>
<linearGradient id="paint4_linear_60_2729" x1="58.9967" y1="50.9209" x2="12.7036" y2="4.62775" gradientUnits="userSpaceOnUse">
<stop stop-color="#FF7044"/>
<stop offset="1" stop-color="#F92814"/>
</linearGradient>
<linearGradient id="paint5_linear_60_2729" x1="69.1481" y1="61.0726" x2="48.6304" y2="40.5549" gradientUnits="userSpaceOnUse">
<stop stop-color="#F92814" stop-opacity="0"/>
<stop offset="1" stop-color="#C1272D"/>
</linearGradient>
<linearGradient id="paint6_linear_60_2729" x1="40.3975" y1="29.9054" x2="51.5088" y2="46.8501" gradientUnits="userSpaceOnUse">
<stop stop-color="#F9F7FC"/>
<stop offset="1" stop-color="#F0DDFC"/>
</linearGradient>
</defs>
</svg>
