<svg width="24" height="24" viewBox="0 0 24 24" fill="none" xmlns="http://www.w3.org/2000/svg">
<path d="M18 2H6C4.93913 2 3.92172 2.42143 3.17157 3.17157C2.42143 3.92172 2 4.93913 2 6V14C2 15.0609 2.42143 16.0783 3.17157 16.8284C3.92172 17.5786 4.93913 18 6 18V21C5.99884 21.1986 6.05687 21.3931 6.16667 21.5586C6.27647 21.7241 6.43307 21.8532 6.61652 21.9294C6.79996 22.0055 7.00193 22.0254 7.19668 21.9863C7.39143 21.9472 7.57013 21.851 7.71 21.71L11.41 18H18C19.0609 18 20.0783 17.5786 20.8284 16.8284C21.5786 16.0783 22 15.0609 22 14V6C22 4.93913 21.5786 3.92172 20.8284 3.17157C20.0783 2.42143 19.0609 2 18 2Z" fill="#2675E2"/>
<path d="M7.5 11.5C8.32843 11.5 9 10.8284 9 10C9 9.17157 8.32843 8.5 7.5 8.5C6.67157 8.5 6 9.17157 6 10C6 10.8284 6.67157 11.5 7.5 11.5Z" fill="#EDEBEA"/>
<path d="M12 11.5C12.8284 11.5 13.5 10.8284 13.5 10C13.5 9.17157 12.8284 8.5 12 8.5C11.1716 8.5 10.5 9.17157 10.5 10C10.5 10.8284 11.1716 11.5 12 11.5Z" fill="#EDEBEA"/>
<path d="M16.5 11.5C17.3284 11.5 18 10.8284 18 10C18 9.17157 17.3284 8.5 16.5 8.5C15.6716 8.5 15 9.17157 15 10C15 10.8284 15.6716 11.5 16.5 11.5Z" fill="#EDEBEA"/>
</svg>
