<svg width="31" height="32" viewBox="0 0 31 32" fill="none" xmlns="http://www.w3.org/2000/svg">
<path d="M5.27258 5.76917C5.27258 5.76917 3.27258 1.26917 2.27253 0.269172C1.27248 -0.730821 -0.727487 1.26917 0.272577 2.76917L7.7561 19.4266L10.8662 30.9211H22.6847L21.4406 22.6195C21.4406 22.6195 26.4168 29.6439 27.6609 30.9211C28.9049 32.1983 30.771 29.6439 30.149 28.3668C29.527 27.0896 22.0627 13.6794 20.8186 12.4022C19.5745 11.125 10.045 12.1361 9.27258 11.7692C8.50015 11.4022 5.27258 5.76917 5.27258 5.76917Z" fill="#231C25"/>
<path d="M20.8186 5.37783C20.8186 8.19926 18.5907 10.4865 15.8424 10.4865C13.0942 10.4865 10.8662 8.19926 10.8662 5.37783C10.8662 2.5564 13.0942 0.269172 15.8424 0.269172C18.5907 0.269172 20.8186 2.5564 20.8186 5.37783Z" fill="#231C25"/>
</svg>
