<svg width="24" height="24" viewBox="0 0 24 24" fill="none" xmlns="http://www.w3.org/2000/svg">
<path fill-rule="evenodd" clip-rule="evenodd" d="M5.84022 9.85635C7.62754 13.7482 10.8081 16.8424 14.7618 18.519L14.7743 18.5243L15.5381 18.8647C16.5108 19.2981 17.654 18.9903 18.2776 18.1272L19.552 16.3635C19.6298 16.2558 19.6097 16.106 19.5063 16.0225L17.2816 14.2277C17.171 14.1385 17.0083 14.1593 16.9237 14.2734L16.0579 15.4418C15.8476 15.7256 15.4678 15.8242 15.1461 15.6786C12.1897 14.3406 9.81391 11.9649 8.47598 9.00851C8.33036 8.68674 8.42896 8.30699 8.71271 8.09671L9.88109 7.23085C9.99526 7.14624 10.0161 6.98362 9.92681 6.87302L8.13177 4.64798C8.04834 4.54456 7.8986 4.52448 7.79087 4.60225L6.01757 5.88241C5.14878 6.5096 4.84283 7.66244 5.28629 8.63789L5.83963 9.85505L5.84022 9.85635ZM14.1699 19.8973C9.87386 18.0737 6.41849 14.7107 4.47645 10.4809L4.47528 10.4784L3.92078 9.25868C3.18168 7.63293 3.6916 5.71152 5.13959 4.66621L6.91288 3.38605C7.667 2.84164 8.71523 2.98225 9.29922 3.70614L11.0943 5.93119C11.7189 6.70536 11.5734 7.84375 10.7742 8.43599L10.1047 8.93215C11.2357 11.1265 13.028 12.9189 15.2224 14.0498L15.7186 13.3803C16.3108 12.5812 17.4492 12.4357 18.2234 13.0603L20.4481 14.855C21.1722 15.4392 21.3127 16.4879 20.7678 17.242L19.4934 19.0057C18.4541 20.4442 16.5487 20.9572 14.9277 20.2349L14.1699 19.8973Z" fill="#FDDB00"/>
</svg>
