<svg width="90" height="90" viewBox="0 0 90 90" fill="none" xmlns="http://www.w3.org/2000/svg">
<g id="Frame">
<g id="Group">
<path id="Vector" d="M81.9251 36.9251C81.9251 16.5319 65.3933 0 45.0002 0C24.6958 0 8.28037 16.2429 8.07673 36.5464C7.92302 51.8808 17.1184 65.0839 30.3113 70.8102C32.5187 71.7697 34.4083 73.3362 35.7604 75.3274L42.3671 85.0468C43.6304 86.9052 46.3694 86.9052 47.6328 85.0468L54.2393 75.3275C55.5881 73.3433 57.4666 71.7731 59.6681 70.8192C72.7633 65.1446 81.9251 52.1058 81.9251 36.9251Z" fill="url(#paint0_linear_515_6)"/>
<path id="Vector_2" d="M45 84.6007C44.7861 84.6007 44.2497 84.5434 43.8888 84.0126L37.2822 74.2929C35.7286 72.0073 33.5714 70.2193 31.044 69.1225C18.0678 63.4901 9.77489 50.7104 9.91677 36.5647C10.0103 27.2337 13.6961 18.4982 20.295 11.9672C26.8932 5.43691 35.6679 1.84009 45 1.84009H45.0002C64.3461 1.84009 80.0852 17.5793 80.0852 36.9253C80.0852 50.9224 71.7838 63.5639 58.9366 69.131C56.4236 70.22 54.2732 72.005 52.7178 74.2933L46.1112 84.0127C45.7504 84.5434 45.2139 84.6007 45 84.6007Z" fill="url(#paint1_linear_515_6)"/>
<path id="Vector_3" d="M45 60.1359C57.819 60.1359 68.2108 49.744 68.2108 36.9251C68.2108 24.1061 57.819 13.7142 45 13.7142C32.181 13.7142 21.7892 24.1061 21.7892 36.9251C21.7892 49.744 32.181 60.1359 45 60.1359Z" fill="url(#paint2_linear_515_6)"/>
<path id="Vector_4" d="M80.7699 46.1185L58.7178 24.0664C55.2872 20.4082 50.411 18.1218 45 18.1218C34.6152 18.1218 26.1967 26.5404 26.1967 36.9251C26.1967 42.3361 28.4831 47.2123 32.1413 50.6429L55.3818 73.8834C56.5759 72.5773 58.0327 71.5278 59.6682 70.8193C70.0251 66.3311 77.9204 57.236 80.7699 46.1185Z" fill="url(#paint3_linear_515_6)"/>
<path id="Vector_5" d="M45 55.7284C55.3848 55.7284 63.8033 47.3099 63.8033 36.9251C63.8033 26.5403 55.3848 18.1218 45 18.1218C34.6152 18.1218 26.1967 26.5403 26.1967 36.9251C26.1967 47.3099 34.6152 55.7284 45 55.7284Z" fill="url(#paint4_linear_515_6)"/>
</g>
</g>
<defs>
<linearGradient id="paint0_linear_515_6" x1="22.7141" y1="14.6379" x2="96.3904" y2="88.3142" gradientUnits="userSpaceOnUse">
<stop stop-color="#FF7044"/>
<stop offset="1" stop-color="#F92814"/>
</linearGradient>
<linearGradient id="paint1_linear_515_6" x1="37.0814" y1="29.0271" x2="11.1907" y2="3.13644" gradientUnits="userSpaceOnUse">
<stop stop-color="#FF7044" stop-opacity="0"/>
<stop offset="1" stop-color="#FFA425"/>
</linearGradient>
<linearGradient id="paint2_linear_515_6" x1="58.9959" y1="50.9209" x2="12.7027" y2="4.62775" gradientUnits="userSpaceOnUse">
<stop stop-color="#FF7044"/>
<stop offset="1" stop-color="#F92814"/>
</linearGradient>
<linearGradient id="paint3_linear_515_6" x1="69.1475" y1="61.0726" x2="48.6298" y2="40.5549" gradientUnits="userSpaceOnUse">
<stop stop-color="#F92814" stop-opacity="0"/>
<stop offset="1" stop-color="#C1272D"/>
</linearGradient>
<linearGradient id="paint4_linear_515_6" x1="40.397" y1="29.9055" x2="51.5082" y2="46.8502" gradientUnits="userSpaceOnUse">
<stop stop-color="#F9F7FC"/>
<stop offset="1" stop-color="#F0DDFC"/>
</linearGradient>
</defs>
</svg>
