<svg width="20" height="20" viewBox="0 0 20 20" fill="none" xmlns="http://www.w3.org/2000/svg">
<g id="Frame" clip-path="url(#clip0_60_3617)">
<g id="Group">
<path id="Vector" d="M18.947 12.3286C18.9826 12.4155 19.0006 12.5085 19 12.6023C18.9994 12.6961 18.9801 12.7889 18.9433 12.8753C18.9065 12.9617 18.8528 13.0401 18.7855 13.106C18.7181 13.1719 18.6383 13.224 18.5506 13.2593L16.5479 14.0664L18.4014 15.17C18.4844 15.2174 18.5569 15.2807 18.6149 15.3562C18.6729 15.4317 18.7151 15.5179 18.7391 15.6098C18.7631 15.7016 18.7684 15.7973 18.7546 15.8912C18.7409 15.9851 18.7085 16.0754 18.6591 16.1567C18.6098 16.238 18.5447 16.3088 18.4674 16.3649C18.3902 16.421 18.3025 16.4613 18.2094 16.4834C18.1163 16.5055 18.0197 16.509 17.9252 16.4937C17.8308 16.4784 17.7403 16.4446 17.6591 16.3943L15.8063 15.2907L16.0269 17.4229C16.0416 17.6088 15.9824 17.793 15.8619 17.9363C15.7414 18.0795 15.5691 18.1703 15.3819 18.1894C15.1948 18.2084 15.0075 18.1541 14.8602 18.0381C14.7128 17.9221 14.6171 17.7536 14.5935 17.5686L14.262 14.3707L10.7206 12.2621V16.3571L13.315 18.2857C13.3907 18.342 13.4545 18.4125 13.5027 18.4932C13.5509 18.5739 13.5827 18.6633 13.596 18.7561C13.6094 18.849 13.6042 18.9435 13.5807 19.0344C13.5572 19.1253 13.5159 19.2107 13.4591 19.2857C13.4024 19.3608 13.3312 19.424 13.2498 19.4718C13.1684 19.5196 13.0782 19.551 12.9845 19.5643C12.8909 19.5775 12.7954 19.5724 12.7038 19.5491C12.6121 19.5258 12.5259 19.4849 12.4502 19.4286L10.7206 18.1429V20.2857C10.7206 20.4752 10.6447 20.6568 10.5096 20.7908C10.3744 20.9247 10.1911 21 9.99999 21C9.80886 21 9.62556 20.9247 9.49041 20.7908C9.35526 20.6568 9.27933 20.4752 9.27933 20.2857V18.1429L7.54976 19.4286C7.39685 19.5422 7.20465 19.591 7.01544 19.5643C6.82623 19.5375 6.65551 19.4373 6.54083 19.2857C6.42616 19.1342 6.37692 18.9437 6.40395 18.7561C6.43098 18.5686 6.53206 18.3994 6.68497 18.2857L9.27933 16.3571V12.2621L5.73802 14.3714L5.40652 17.5686C5.38833 17.7444 5.30503 17.9073 5.17272 18.0257C5.04041 18.1442 4.86849 18.2099 4.69018 18.21C4.66539 18.2102 4.64061 18.209 4.61596 18.2064C4.4259 18.187 4.25141 18.0935 4.13087 17.9466C4.01032 17.7996 3.95358 17.6112 3.97313 17.4229L4.19437 15.2907L2.34084 16.3943C2.25971 16.4465 2.16881 16.482 2.07355 16.4986C1.9783 16.5152 1.88063 16.5127 1.78639 16.4911C1.69214 16.4696 1.60324 16.4294 1.52498 16.3731C1.44671 16.3168 1.38069 16.2454 1.33085 16.1632C1.28101 16.0811 1.24836 15.9898 1.23486 15.8949C1.22136 15.7999 1.22727 15.7033 1.25225 15.6107C1.27723 15.5181 1.32077 15.4314 1.38027 15.3558C1.43976 15.2802 1.514 15.2173 1.59856 15.1707L3.45209 14.0664L1.44939 13.2593C1.27757 13.1845 1.14198 13.0462 1.07145 12.8738C1.00091 12.7014 1.00099 12.5086 1.07167 12.3363C1.14236 12.164 1.27806 12.0258 1.44994 11.9511C1.62182 11.8765 1.8163 11.8712 1.99204 11.9364L4.99646 13.1471L8.60119 11L4.99574 8.85286L1.99204 10.0643C1.81496 10.1356 1.61654 10.1343 1.44044 10.0606C1.26434 9.98694 1.12498 9.84695 1.05302 9.67143C0.981063 9.49591 0.982396 9.29925 1.05673 9.12471C1.13106 8.95017 1.2723 8.81204 1.44939 8.74071L3.45137 7.93357L1.59856 6.83C1.51563 6.7826 1.44305 6.7193 1.38508 6.64379C1.3271 6.56829 1.28488 6.48209 1.26089 6.39023C1.2369 6.29837 1.23161 6.20269 1.24534 6.10879C1.25907 6.01488 1.29153 5.92463 1.34084 5.8433C1.39015 5.76197 1.45532 5.69119 1.53253 5.6351C1.60975 5.579 1.69747 5.53872 1.79056 5.5166C1.88366 5.49449 1.98027 5.49098 2.07475 5.50628C2.16923 5.52157 2.25969 5.55538 2.34084 5.60571L4.19365 6.70929L3.97241 4.57714C3.96276 4.48381 3.97174 4.38951 3.99886 4.29962C4.02598 4.20973 4.07069 4.12601 4.13045 4.05325C4.19021 3.98049 4.26384 3.92011 4.34715 3.87555C4.43045 3.831 4.52179 3.80314 4.61596 3.79357C4.71012 3.784 4.80527 3.79291 4.89596 3.81979C4.98665 3.84667 5.07111 3.89099 5.14452 3.95022C5.21793 4.00945 5.27885 4.08243 5.32381 4.165C5.36876 4.24756 5.39687 4.3381 5.40652 4.43143L5.73802 7.62857L9.27933 9.73786V5.64286L6.68497 3.71429C6.53206 3.60062 6.43098 3.43141 6.40395 3.24387C6.37692 3.05634 6.42616 2.86584 6.54083 2.71429C6.65551 2.56273 6.82623 2.46254 7.01544 2.43575C7.20465 2.40896 7.39685 2.45776 7.54976 2.57143L9.27933 3.85714V1.71429C9.27933 1.52485 9.35526 1.34316 9.49041 1.20921C9.62556 1.07525 9.80886 1 9.99999 1C10.1911 1 10.3744 1.07525 10.5096 1.20921C10.6447 1.34316 10.7206 1.52485 10.7206 1.71429V3.85714L12.4502 2.57143C12.5259 2.51515 12.6121 2.4742 12.7038 2.45092C12.7954 2.42764 12.8909 2.42248 12.9845 2.43575C13.0782 2.44902 13.1684 2.48044 13.2498 2.52823C13.3312 2.57602 13.4024 2.63924 13.4591 2.71429C13.5159 2.78933 13.5572 2.87472 13.5807 2.96559C13.6042 3.05645 13.6094 3.15101 13.596 3.24387C13.5827 3.33673 13.5509 3.42607 13.5027 3.50678C13.4545 3.58749 13.3907 3.658 13.315 3.71429L10.7206 5.64286V9.73786L14.262 7.62857L14.5935 4.43143C14.613 4.24294 14.7072 4.06984 14.8555 3.95022C15.0037 3.8306 15.1939 3.77425 15.384 3.79357C15.5742 3.81289 15.7488 3.9063 15.8695 4.05325C15.9902 4.2002 16.0471 4.38865 16.0276 4.57714L15.8056 6.70929L17.6591 5.60571C17.7403 5.55352 17.8312 5.51804 17.9264 5.5014C18.0217 5.48476 18.1193 5.48729 18.2136 5.50885C18.3078 5.53041 18.3967 5.57056 18.475 5.62689C18.5533 5.68323 18.6193 5.75461 18.6691 5.83677C18.719 5.91893 18.7516 6.01019 18.7651 6.10512C18.7786 6.20005 18.7727 6.29671 18.7477 6.38932C18.7227 6.48194 18.6792 6.56862 18.6197 6.64421C18.5602 6.7198 18.486 6.78274 18.4014 6.82929L16.5479 7.93357L18.5506 8.74071C18.7224 8.81553 18.858 8.95383 18.9285 9.12619C18.9991 9.29856 18.999 9.49139 18.9283 9.6637C18.8576 9.83601 18.7219 9.97419 18.55 10.0489C18.3782 10.1235 18.1837 10.1288 18.0079 10.0636L15.0035 8.85286L11.3988 11L15.0042 13.1471L18.0079 11.9364C18.0956 11.901 18.1894 11.883 18.284 11.8835C18.3787 11.8841 18.4723 11.9031 18.5595 11.9395C18.6467 11.9759 18.7258 12.0291 18.7923 12.0958C18.8588 12.1626 18.9113 12.2417 18.947 12.3286Z" fill="#2675E2"/>
</g>
</g>
<defs>
<clipPath id="clip0_60_3617">
<rect width="20" height="20" fill="white"/>
</clipPath>
</defs>
</svg>
