<svg width="16" height="16" viewBox="0 0 16 16" fill="none" xmlns="http://www.w3.org/2000/svg">
<path d="M8.64866 1.24715C8.35968 0.749038 7.64028 0.749038 7.35131 1.24715L5.31574 4.75513C5.17296 5.00119 4.92618 5.16912 4.64488 5.2116L0.830142 5.78777C0.189432 5.88454 -0.0353135 6.69348 0.463669 7.10688L3.30549 9.46128C3.56854 9.67923 3.69223 10.023 3.62833 10.3586L2.88495 14.2625C2.76744 14.8796 3.41528 15.3591 3.97114 15.0664L7.56318 13.175C7.83656 13.0311 8.16333 13.0311 8.43678 13.175L12.0288 15.0664C12.5847 15.3591 13.2325 14.8796 13.115 14.2625L12.3717 10.3586C12.3078 10.023 12.4314 9.67923 12.6945 9.46128L15.5363 7.10688C16.0353 6.69348 15.8106 5.88454 15.1698 5.78777L11.3551 5.2116C11.0738 5.16912 10.827 5.00119 10.6842 4.75513L8.64866 1.24715Z" fill="#FFB200"/>
</svg>
