<svg width="16" height="12" viewBox="0 0 16 12" fill="none" xmlns="http://www.w3.org/2000/svg">
<path d="M14.8596 0.215277L5.6477 10.3233C5.58577 10.3916 5.51217 10.4457 5.43112 10.4827C5.35007 10.5196 5.26317 10.5386 5.17541 10.5386C5.08765 10.5386 5.00075 10.5196 4.9197 10.4827C4.83866 10.4457 4.76505 10.3916 4.70312 10.3233L1.14076 6.41047C1.07883 6.34223 1.00522 6.28809 0.924176 6.25115C0.843128 6.21421 0.75623 6.19519 0.668468 6.19519C0.580707 6.19519 0.493809 6.21421 0.412761 6.25115C0.331713 6.28809 0.25811 6.34223 0.196176 6.41047C0.133997 6.47843 0.0846593 6.5592 0.0509944 6.64814C0.0173296 6.73708 0 6.83244 0 6.92874C0 7.02505 0.0173296 7.12041 0.0509944 7.20935C0.0846593 7.29829 0.133997 7.37906 0.196176 7.44702L3.75987 11.357C4.1358 11.7687 4.64526 12 5.17641 12C5.70757 12 6.21702 11.7687 6.59296 11.357L15.8042 1.2511C15.8662 1.18315 15.9155 1.10243 15.9491 1.01355C15.9827 0.924682 16 0.829408 16 0.733189C16 0.636969 15.9827 0.541695 15.9491 0.452823C15.9155 0.363951 15.8662 0.283228 15.8042 0.215277C15.7422 0.147044 15.6686 0.0929024 15.5876 0.0559597C15.5065 0.0190171 15.4196 0 15.3319 0C15.2441 0 15.1572 0.0190171 15.0762 0.0559597C14.9951 0.0929024 14.9215 0.147044 14.8596 0.215277Z" fill="#7D7B77"/>
</svg>
