<svg width="45" height="45" viewBox="0 0 45 45" fill="none" xmlns="http://www.w3.org/2000/svg">
<path d="M24.375 1.875V5.625C24.375 6.12228 24.1775 6.59919 23.8258 6.95083C23.4742 7.30246 22.9973 7.5 22.5 7.5C22.0027 7.5 21.5258 7.30246 21.1742 6.95083C20.8225 6.59919 20.625 6.12228 20.625 5.625V1.875C20.625 1.37772 20.8225 0.900806 21.1742 0.549175C21.5258 0.197544 22.0027 0 22.5 0C22.9973 0 23.4742 0.197544 23.8258 0.549175C24.1775 0.900806 24.375 1.37772 24.375 1.875V1.875ZM22.5 37.5C22.0027 37.5 21.5258 37.6975 21.1742 38.0492C20.8225 38.4008 20.625 38.8777 20.625 39.375V43.125C20.625 43.6223 20.8225 44.0992 21.1742 44.4508C21.5258 44.8025 22.0027 45 22.5 45C22.9973 45 23.4742 44.8025 23.8258 44.4508C24.1775 44.0992 24.375 43.6223 24.375 43.125V39.375C24.375 38.8777 24.1775 38.4008 23.8258 38.0492C23.4742 37.6975 22.9973 37.5 22.5 37.5ZM7.5 22.5C7.5 22.0027 7.30246 21.5258 6.95083 21.1742C6.59919 20.8225 6.12228 20.625 5.625 20.625H1.875C1.37772 20.625 0.900806 20.8225 0.549175 21.1742C0.197544 21.5258 0 22.0027 0 22.5C0 22.9973 0.197544 23.4742 0.549175 23.8258C0.900806 24.1775 1.37772 24.375 1.875 24.375H5.625C6.12228 24.375 6.59919 24.1775 6.95083 23.8258C7.30246 23.4742 7.5 22.9973 7.5 22.5ZM43.125 20.625H39.375C38.8777 20.625 38.4008 20.8225 38.0492 21.1742C37.6975 21.5258 37.5 22.0027 37.5 22.5C37.5 22.9973 37.6975 23.4742 38.0492 23.8258C38.4008 24.1775 38.8777 24.375 39.375 24.375H43.125C43.6223 24.375 44.0992 24.1775 44.4508 23.8258C44.8025 23.4742 45 22.9973 45 22.5C45 22.0027 44.8025 21.5258 44.4508 21.1742C44.0992 20.8225 43.6223 20.625 43.125 20.625ZM33.7837 3.03375C33.5707 2.91019 33.3353 2.82983 33.0911 2.79727C32.847 2.7647 32.5988 2.78056 32.3608 2.84394C32.1227 2.90732 31.8995 3.01698 31.7039 3.16665C31.5083 3.31633 31.3441 3.50308 31.2206 3.71625L29.3456 6.96188C29.0968 7.3923 29.0292 7.9039 29.1575 8.3842C29.2859 8.86449 29.5997 9.27416 30.03 9.52312C30.3144 9.68945 30.638 9.77683 30.9675 9.77625C31.2966 9.77624 31.6199 9.6896 31.905 9.52504C32.19 9.36047 32.4267 9.12378 32.5912 8.83875L34.4662 5.59313C34.7146 5.1631 34.7822 4.65212 34.6543 4.1723C34.5263 3.69248 34.2132 3.28302 33.7837 3.03375V3.03375ZM14.9756 35.4769C14.5454 35.2279 14.034 35.16 13.5537 35.288C13.0735 35.4159 12.6636 35.7294 12.4144 36.1594L10.5394 39.405C10.2904 39.8352 10.2225 40.3466 10.3505 40.8269C10.4784 41.3072 10.7919 41.717 11.2219 41.9662C11.5063 42.1324 11.8299 42.2198 12.1594 42.2194C12.4888 42.2197 12.8125 42.1332 13.0979 41.9686C13.3833 41.804 13.6203 41.5672 13.785 41.2819L15.66 38.0362C15.9082 37.606 15.9755 37.0948 15.8472 36.615C15.7189 36.1352 15.4054 35.7258 14.9756 35.4769V35.4769ZM8.84063 12.4144L5.595 10.5394C5.16572 10.3084 4.66335 10.2536 4.1944 10.3868C3.72544 10.5199 3.32677 10.8304 3.08292 11.2526C2.83906 11.6747 2.76919 12.1752 2.88813 12.6479C3.00706 13.1207 3.30543 13.5285 3.72 13.785L6.96562 15.66C7.3949 15.891 7.89727 15.9458 8.36623 15.8126C8.83518 15.6795 9.23385 15.3689 9.47771 14.9468C9.72156 14.5247 9.79143 14.0242 9.6725 13.5515C9.55357 13.0787 9.25519 12.6709 8.84063 12.4144V12.4144ZM41.2781 31.2206L38.0325 29.3456C37.6032 29.1146 37.1009 29.0599 36.6319 29.193C36.1629 29.3261 35.7643 29.6367 35.5204 30.0588C35.2766 30.4809 35.2067 30.9814 35.3256 31.4542C35.4446 31.9269 35.7429 32.3348 36.1575 32.5912L39.4031 34.4662C39.6875 34.6326 40.0112 34.72 40.3406 34.7194C40.7534 34.7194 41.1546 34.5832 41.482 34.3319C41.8094 34.0806 42.0448 33.7283 42.1517 33.3297C42.2585 32.931 42.2308 32.5082 42.0728 32.1269C41.9149 31.7456 41.6356 31.427 41.2781 31.2206V31.2206ZM13.7794 3.71625C13.5229 3.30168 13.115 3.00331 12.6423 2.88437C12.1695 2.76544 11.669 2.83531 11.2469 3.07917C10.8248 3.32302 10.5143 3.72169 10.3811 4.19065C10.248 4.6596 10.3027 5.16197 10.5338 5.59125L12.4088 8.83687C12.5733 9.1219 12.81 9.3586 13.095 9.52316C13.3801 9.68773 13.7034 9.77437 14.0325 9.77437C14.362 9.77495 14.6856 9.68757 14.97 9.52125C15.4003 9.27229 15.7141 8.86262 15.8425 8.38232C15.9708 7.90203 15.9032 7.39042 15.6544 6.96L13.7794 3.71625ZM32.5856 36.1537C32.3291 35.7392 31.9213 35.4408 31.4485 35.3219C30.9758 35.2029 30.4753 35.2728 30.0532 35.5167C29.6311 35.7605 29.3205 36.1592 29.1874 36.6281C29.0542 37.0971 29.109 37.5995 29.34 38.0287L31.215 41.2744C31.4715 41.6889 31.8793 41.9873 32.3521 42.1063C32.8248 42.2252 33.3253 42.1553 33.7475 41.9115C34.1696 41.6676 34.4801 41.2689 34.6132 40.8C34.7464 40.331 34.6916 39.8287 34.4606 39.3994L32.5856 36.1537ZM37.1006 15.9038C37.4298 15.9037 37.7531 15.8171 38.0381 15.6525L41.2837 13.7775C41.6983 13.521 41.9967 13.1132 42.1156 12.6404C42.2346 12.1677 42.1647 11.6672 41.9208 11.2451C41.677 10.8229 41.2783 10.5124 40.8094 10.3793C40.3404 10.2461 39.838 10.3009 39.4087 10.5319L36.1631 12.4069C35.8066 12.6137 35.5282 12.9322 35.3709 13.3131C35.2136 13.6941 35.1862 14.1162 35.2929 14.5143C35.3996 14.9124 35.6345 15.2642 35.9613 15.5154C36.2881 15.7665 36.6885 15.903 37.1006 15.9038ZM6.96188 29.34L3.71625 31.215C3.35882 31.4214 3.07948 31.7399 2.92154 32.1213C2.7636 32.5026 2.7359 32.9254 2.84272 33.324C2.94955 33.7227 3.18493 34.075 3.51237 34.3263C3.83982 34.5775 4.24101 34.7137 4.65375 34.7137C4.98321 34.7143 5.30685 34.6269 5.59125 34.4606L8.83687 32.5856C9.25144 32.3291 9.54982 31.9213 9.66875 31.4485C9.78768 30.9758 9.71781 30.4753 9.47396 30.0532C9.2301 29.6311 8.83143 29.3205 8.36248 29.1874C7.89352 29.0542 7.39115 29.109 6.96188 29.34V29.34Z" fill="white"/>
</svg>
